<?xml version="1.0" encoding="utf-8"?>
<!-- Generator: Adobe Illustrator 23.0.1, SVG Export Plug-In . SVG Version: 6.00 Build 0)  -->
<svg version="1.1" id="Layer_1" xmlns="http://www.w3.org/2000/svg" xmlns:xlink="http://www.w3.org/1999/xlink" x="0px" y="0px"
	 viewBox="0 0 545 126" style="enable-background:new 0 0 545 126;" xml:space="preserve">
<style type="text/css">
	.st0{fill:#FFFFFF;}
	.st1{fill:#66A4FF;}
	.st2{fill:#649DF9;}
</style>
<rect x="-43" y="-1230" class="st0" width="541" height="1080"/>
<rect x="498" y="-1230" width="539" height="1080"/>
<g>
	<path class="st1" d="M154.81-901.8l2.99,2.68c-3.66,3.33-7.52,5-11.6,5c-4.36,0-8.08-1.54-11.16-4.61
		c-3.08-3.08-4.61-6.8-4.61-11.16c0-4.35,1.54-8.07,4.61-11.16c3.08-3.09,6.8-4.63,11.16-4.63c4.08,0,7.95,1.67,11.6,5l-2.99,2.72
		c-2.75-2.45-5.63-3.67-8.61-3.67c-3.23,0-5.99,1.15-8.29,3.44c-2.3,2.29-3.45,5.06-3.45,8.3c0,3.26,1.15,6.03,3.45,8.32
		c2.3,2.29,5.06,3.44,8.29,3.44C149.18-898.13,152.05-899.36,154.81-901.8z"/>
	<path class="st1" d="M189.12-921.11c3.09,3.09,4.63,6.82,4.63,11.18c0,4.36-1.54,8.09-4.63,11.18c-3.09,3.09-6.82,4.63-11.18,4.63
		c-4.36,0-8.09-1.54-11.18-4.63c-3.09-3.09-4.63-6.82-4.63-11.18c0-4.36,1.54-8.09,4.63-11.18c3.09-3.09,6.82-4.63,11.18-4.63
		C182.3-925.74,186.03-924.2,189.12-921.11z M177.94-921.71c-3.26,0-6.03,1.15-8.33,3.45c-2.3,2.3-3.45,5.07-3.45,8.33
		c0,3.26,1.15,6.04,3.46,8.34c2.3,2.3,5.08,3.46,8.32,3.46c3.26,0,6.03-1.15,8.33-3.46c2.3-2.3,3.45-5.08,3.45-8.34
		c0-3.26-1.15-6.03-3.45-8.33C183.97-920.56,181.2-921.71,177.94-921.71z"/>
	<path class="st1" d="M203.68-925.34l10.02,17.32l9.98-17.32h3.65v30.89h-4v-22.32l-9.63,16.68l-9.67-16.68v22.32h-4v-30.89H203.68z
		"/>
	<path class="st1" d="M238.06-904.33v9.89h-4v-30.89h8.77c2.48,0.33,4.58,1.36,6.29,3.07c2.05,2.06,3.07,4.53,3.07,7.41
		c0,2.91-1.02,5.39-3.07,7.44c-2.05,2.05-4.52,3.08-7.41,3.08H238.06z M238.06-921.32v12.97h3.65c1.78,0,3.3-0.63,4.57-1.9
		c1.27-1.27,1.9-2.8,1.9-4.6c0-1.79-0.63-3.31-1.9-4.58c-1.27-1.26-2.79-1.89-4.57-1.89H238.06z"/>
	<path class="st1" d="M273.16-925.34h4.02v21.76c-0.35,2.48-1.37,4.58-3.07,6.29c-2.06,2.06-4.54,3.09-7.43,3.09
		c-2.9,0-5.37-1.03-7.42-3.08c-2.05-2.05-3.08-4.53-3.08-7.42v-20.64h4.02v20.64c0,1.78,0.63,3.3,1.9,4.57
		c1.27,1.27,2.8,1.9,4.59,1.9c1.8,0,3.33-0.63,4.6-1.89c1.26-1.26,1.89-2.79,1.89-4.58V-925.34z"/>
	<path class="st1" d="M292.26-921.34v26.89h-4.02v-26.89h-7.2v-4h18.42v4H292.26z"/>
	<path class="st1" d="M319.96-925.34v4h-12.65v9.44h12.65v4h-12.65v9.44h12.65v4.02h-16.64v-30.89H319.96z"/>
	<path class="st1" d="M332.92-904.33h-3.65v9.89h-4v-30.89h8.77c2.48,0.33,4.58,1.36,6.29,3.07c2.05,2.06,3.07,4.53,3.07,7.41
		c0,2.91-1.02,5.39-3.07,7.45c-1.42,1.42-2.5,2.21-3.24,2.39l6.85,10.56h-4.85L332.92-904.33z M329.27-921.32v12.97h3.65
		c1.78,0,3.3-0.63,4.57-1.9c1.27-1.27,1.9-2.8,1.9-4.6c0-1.79-0.63-3.31-1.9-4.58c-1.27-1.26-2.79-1.89-4.57-1.89H329.27z"/>
</g>
<g>
	<path d="M150.46-880.7c-1.26-0.42-2.27-1.02-3.05-1.8c-0.78-0.78-1.17-1.74-1.17-2.9c0-1.13,0.4-2.1,1.21-2.91
		c0.81-0.81,1.79-1.22,2.94-1.22c1.14,0,2.11,0.4,2.92,1.21c0.46,0.44,0.84,1.15,1.15,2.12l-2.08,0.82
		c-0.25-0.68-0.48-1.12-0.69-1.33c-0.36-0.35-0.8-0.53-1.31-0.53c-0.52,0-0.96,0.18-1.32,0.54c-0.36,0.36-0.54,0.8-0.54,1.31
		c0,0.52,0.18,0.96,0.54,1.32c0.41,0.4,0.97,0.76,1.68,1.1c1.39,0.45,2.57,1.16,3.53,2.13c1.09,1.07,1.63,2.37,1.63,3.9
		s-0.54,2.83-1.62,3.92c-1.08,1.08-2.38,1.62-3.9,1.62c-1.53,0-2.83-0.54-3.91-1.63c-0.86-0.86-1.41-2.06-1.64-3.58l2.23-0.81
		c0.14,1.31,0.48,2.23,1.03,2.78c0.64,0.64,1.4,0.95,2.29,0.95c0.89,0,1.66-0.32,2.29-0.95c0.64-0.64,0.95-1.4,0.95-2.3
		c0-0.89-0.32-1.66-0.95-2.29C152.08-879.86,151.34-880.34,150.46-880.7z"/>
	<path d="M167.18-875.52l2.29,0.82c-0.56,0.78-0.97,1.29-1.22,1.54c-1.23,1.23-2.72,1.85-4.46,1.85c-1.74,0-3.22-0.62-4.45-1.85
		c-1.23-1.23-1.85-2.72-1.85-4.46c0-1.74,0.62-3.23,1.85-4.46c1.23-1.23,2.72-1.85,4.45-1.85c1.74,0,3.23,0.62,4.46,1.85
		c0.25,0.25,0.66,0.76,1.22,1.52l-2.29,0.84c-0.3-0.36-0.49-0.59-0.6-0.7c-0.77-0.77-1.7-1.15-2.79-1.15
		c-1.09,0-2.01,0.39-2.79,1.16c-0.77,0.77-1.16,1.7-1.16,2.8c0,1.09,0.39,2.01,1.16,2.79c0.77,0.77,1.7,1.16,2.79,1.16
		c1.09,0,2.03-0.38,2.8-1.15C166.68-874.93,166.88-875.16,167.18-875.52z"/>
	<path d="M174.6-887.23c0.32,0.31,0.48,0.69,0.48,1.14c0,0.45-0.16,0.83-0.48,1.14c-0.32,0.31-0.7,0.47-1.14,0.47
		c-0.44,0-0.81-0.16-1.13-0.47c-0.32-0.31-0.48-0.69-0.48-1.14c0-0.45,0.16-0.83,0.48-1.14c0.32-0.31,0.69-0.47,1.13-0.47
		C173.9-887.69,174.28-887.54,174.6-887.23z M174.61-883.01v11.4h-2.29v-11.4H174.61z"/>
	<path d="M181.66-874.19c0.38,0.34,1.08,0.51,2.09,0.51c1.09,0,2.03-0.38,2.8-1.15c0.1-0.1,0.29-0.33,0.59-0.69l2.29,0.82
		c-0.56,0.78-0.97,1.29-1.22,1.54c-1.23,1.23-2.72,1.85-4.46,1.85c-1.74,0-3.22-0.62-4.45-1.85c-1.23-1.23-1.85-2.72-1.85-4.46
		c0-1.74,0.62-3.23,1.85-4.46c1.23-1.23,2.72-1.85,4.45-1.85c1.49,0,2.8,0.45,3.92,1.35c0.18,0.16,0.37,0.32,0.54,0.5
		c0.07,0.07,0.28,0.31,0.63,0.7l-1.15,1.16L181.66-874.19z M185.5-881.28c-0.26-0.2-0.84-0.3-1.74-0.3c-1.09,0-2.01,0.39-2.79,1.16
		c-0.77,0.77-1.16,1.7-1.16,2.8c0,0.89,0.1,1.47,0.3,1.74L185.5-881.28z"/>
	<path d="M194.4-879.95v8.34h-2.3v-11.4h2.3v1.33c0.48-1.3,1.44-1.95,2.89-1.95c1.23,0,2.21,0.44,2.94,1.31
		c0.73,0.88,1.1,1.97,1.12,3.3v7.41h-2.29v-7.32c0-0.66-0.24-1.22-0.72-1.69c-0.48-0.47-1.05-0.7-1.72-0.7
		c-0.66,0-1.23,0.23-1.71,0.69C194.66-880.36,194.49-880.13,194.4-879.95z"/>
	<path d="M213.75-875.52l2.29,0.82c-0.56,0.78-0.97,1.29-1.22,1.54c-1.23,1.23-2.72,1.85-4.46,1.85c-1.74,0-3.22-0.62-4.45-1.85
		c-1.23-1.23-1.85-2.72-1.85-4.46c0-1.74,0.62-3.23,1.85-4.46c1.23-1.23,2.72-1.85,4.45-1.85c1.74,0,3.23,0.62,4.46,1.85
		c0.25,0.25,0.66,0.76,1.22,1.52l-2.29,0.84c-0.3-0.36-0.49-0.59-0.6-0.7c-0.77-0.77-1.7-1.15-2.79-1.15
		c-1.09,0-2.01,0.39-2.79,1.16c-0.77,0.77-1.16,1.7-1.16,2.8c0,1.09,0.39,2.01,1.16,2.79c0.77,0.77,1.7,1.16,2.79,1.16
		c1.09,0,2.03-0.38,2.8-1.15C213.25-874.93,213.45-875.16,213.75-875.52z"/>
	<path d="M222.24-874.19c0.38,0.34,1.08,0.51,2.09,0.51c1.09,0,2.03-0.38,2.8-1.15c0.1-0.1,0.29-0.33,0.59-0.69l2.29,0.82
		c-0.56,0.78-0.97,1.29-1.22,1.54c-1.23,1.23-2.72,1.85-4.46,1.85c-1.74,0-3.22-0.62-4.45-1.85c-1.23-1.23-1.85-2.72-1.85-4.46
		c0-1.74,0.62-3.23,1.85-4.46c1.23-1.23,2.72-1.85,4.45-1.85c1.49,0,2.8,0.45,3.92,1.35c0.18,0.16,0.37,0.32,0.54,0.5
		c0.07,0.07,0.28,0.31,0.63,0.7l-1.15,1.16L222.24-874.19z M226.08-881.28c-0.26-0.2-0.84-0.3-1.74-0.3c-1.09,0-2.01,0.39-2.79,1.16
		c-0.77,0.77-1.16,1.7-1.16,2.8c0,0.89,0.1,1.47,0.3,1.74L226.08-881.28z"/>
	<path class="st1" d="M254.24-875.83l1.72,1.54c-2.1,1.91-4.32,2.87-6.66,2.87c-2.5,0-4.64-0.88-6.4-2.65
		c-1.77-1.76-2.65-3.9-2.65-6.4c0-2.5,0.88-4.63,2.65-6.4c1.76-1.77,3.9-2.66,6.4-2.66c2.34,0,4.56,0.96,6.66,2.87l-1.72,1.56
		c-1.58-1.4-3.23-2.1-4.94-2.1c-1.85,0-3.44,0.66-4.76,1.97c-1.32,1.31-1.98,2.9-1.98,4.76c0,1.87,0.66,3.46,1.98,4.77
		c1.32,1.31,2.9,1.97,4.76,1.97C251.01-873.72,252.65-874.42,254.24-875.83z"/>
	<path class="st1" d="M264.35-883.94c1.74,0,3.23,0.62,4.46,1.85c1.23,1.23,1.84,2.72,1.84,4.46c0,1.74-0.61,3.23-1.84,4.46
		c-1.23,1.23-2.72,1.85-4.46,1.85c-1.74,0-3.22-0.62-4.45-1.85c-1.23-1.23-1.85-2.72-1.85-4.46c0-1.74,0.62-3.23,1.85-4.46
		C261.13-883.32,262.61-883.94,264.35-883.94z M261.55-880.41c-0.77,0.78-1.16,1.71-1.16,2.79c0,1.09,0.39,2.02,1.16,2.79
		c0.77,0.77,1.7,1.15,2.8,1.15c1.09,0,2.03-0.38,2.8-1.15c0.77-0.77,1.16-1.7,1.16-2.79c0-1.09-0.39-2.02-1.16-2.79
		c-0.77-0.78-1.7-1.16-2.8-1.16C263.26-881.58,262.32-881.19,261.55-880.41z"/>
	<path class="st1" d="M273.31-883.01h2.29v1.06c0.44-1.11,1.3-1.67,2.56-1.67c1.26,0,1.96,0.64,2.12,1.91
		c0.36-1.27,1.36-1.91,2.99-1.91c1.61,0,2.41,0.98,2.41,2.94v9.07h-2.3v-8.02c0-1.12-0.45-1.68-1.36-1.68c-0.38,0-0.7,0.13-0.97,0.4
		c-0.27,0.27-0.41,1.16-0.41,2.68v6.62h-2.29l0.01-8.02c0-1.12-0.46-1.68-1.37-1.68c-0.38,0-0.7,0.13-0.97,0.4
		c-0.24,0.23-0.37,0.83-0.4,1.82v7.49h-2.29V-883.01z"/>
	<path class="st1" d="M289.02-883.01h2.29v1.06c0.44-1.11,1.3-1.67,2.56-1.67c1.26,0,1.96,0.64,2.12,1.91
		c0.36-1.27,1.36-1.91,2.99-1.91c1.61,0,2.41,0.98,2.41,2.94v9.07h-2.3v-8.02c0-1.12-0.45-1.68-1.36-1.68c-0.38,0-0.7,0.13-0.97,0.4
		c-0.27,0.27-0.41,1.16-0.41,2.68v6.62h-2.29l0.01-8.02c0-1.12-0.46-1.68-1.37-1.68c-0.38,0-0.7,0.13-0.97,0.4
		c-0.24,0.23-0.37,0.83-0.4,1.82v7.49h-2.29V-883.01z"/>
	<path class="st1" d="M309.34-871.45c-1.44,0-2.6-0.44-3.48-1.32c-0.88-0.88-1.33-1.98-1.35-3.3v-6.93h2.3v6.85
		c0,0.66,0.24,1.22,0.72,1.69c0.48,0.47,1.08,0.71,1.79,0.71c0.66,0,1.23-0.23,1.71-0.7c0.48-0.47,0.73-1.04,0.73-1.7v-6.85h2.29
		v6.93c-0.02,1.32-0.47,2.42-1.34,3.3C311.84-871.89,310.71-871.45,309.34-871.45z"/>
	<path class="st1" d="M319.68-879.95v8.34h-2.3v-11.4h2.3v1.33c0.48-1.3,1.44-1.95,2.89-1.95c1.23,0,2.21,0.44,2.94,1.31
		c0.73,0.88,1.1,1.97,1.12,3.3v7.41h-2.29v-7.32c0-0.66-0.24-1.22-0.72-1.69c-0.48-0.47-1.05-0.7-1.72-0.7
		c-0.66,0-1.23,0.23-1.71,0.69C319.94-880.36,319.76-880.13,319.68-879.95z"/>
	<path class="st1" d="M332.47-887.23c0.32,0.31,0.48,0.69,0.48,1.14c0,0.45-0.16,0.83-0.48,1.14c-0.32,0.31-0.7,0.47-1.14,0.47
		c-0.44,0-0.81-0.16-1.13-0.47c-0.32-0.31-0.48-0.69-0.48-1.14c0-0.45,0.16-0.83,0.48-1.14c0.32-0.31,0.69-0.47,1.13-0.47
		C331.77-887.69,332.15-887.54,332.47-887.23z M332.48-883.01v11.4h-2.29v-11.4H332.48z"/>
	<path class="st1" d="M337.37-883.01v-4.28h2.29v4.28h2.05v2.29h-2.05v9.11h-2.29v-9.11h-2.05v-2.29H337.37z"/>
	<path class="st1" d="M347.19-867.77h-2.43l3.04-6.37l-4.24-8.86h2.58l2.89,6.24l2.89-6.24h2.57L347.19-867.77z"/>
	<path d="M378.56-875.83l1.72,1.54c-2.1,1.91-4.32,2.87-6.66,2.87c-2.5,0-4.64-0.88-6.4-2.65c-1.77-1.76-2.65-3.9-2.65-6.4
		c0-2.5,0.88-4.63,2.65-6.4c1.76-1.77,3.9-2.66,6.4-2.66c2.34,0,4.56,0.96,6.66,2.87l-1.72,1.56c-1.58-1.4-3.23-2.1-4.94-2.1
		c-1.85,0-3.44,0.66-4.76,1.97c-1.32,1.31-1.98,2.9-1.98,4.76c0,1.87,0.66,3.46,1.98,4.77c1.32,1.31,2.9,1.97,4.76,1.97
		C375.33-873.72,376.98-874.42,378.56-875.83z"/>
	<path d="M385.34-889.34v17.74h-2.3v-17.74H385.34z"/>
	<path d="M393.49-871.45c-1.44,0-2.6-0.44-3.48-1.32c-0.88-0.88-1.33-1.98-1.35-3.3v-6.93h2.3v6.85c0,0.66,0.24,1.22,0.72,1.69
		c0.48,0.47,1.08,0.71,1.79,0.71c0.66,0,1.23-0.23,1.71-0.7c0.48-0.47,0.73-1.04,0.73-1.7v-6.85h2.29v6.93
		c-0.02,1.32-0.47,2.42-1.34,3.3C395.99-871.89,394.87-871.45,393.49-871.45z"/>
	<path d="M403.83-873.02v1.42h-2.29v-17.72h2.29v7.11c1.11-1.14,2.4-1.72,3.87-1.72c1.74,0,3.23,0.62,4.46,1.85
		c1.23,1.23,1.84,2.72,1.84,4.46c0,1.74-0.61,3.23-1.84,4.46c-1.23,1.23-2.72,1.85-4.46,1.85
		C406.23-871.31,404.94-871.88,403.83-873.02z M403.83-878.51v1.78c0.14,0.69,0.49,1.33,1.06,1.89c0.78,0.77,1.71,1.15,2.8,1.15
		c1.09,0,2.03-0.38,2.8-1.15c0.77-0.77,1.16-1.7,1.16-2.79c0-1.09-0.39-2.02-1.16-2.79c-0.77-0.78-1.7-1.16-2.8-1.16
		c-1.09,0-2.03,0.39-2.8,1.16C404.32-879.84,403.97-879.21,403.83-878.51z"/>
</g>
<path d="M66.37-924.15c-7.51-0.01-13.67-6.17-13.57-13.78c0.09-7.21,6-13.44,13.71-13.39c7.37,0.05,13.57,6.14,13.45,13.82
	C79.85-930.25,73.92-924.17,66.37-924.15z"/>
<g>
	<path class="st1" d="M52.11-882.51c-0.11-7.26,5.98-13.65,13.55-13.65c7.51,0,13.58,6.14,13.65,13.48
		c0.08,7.54-6.19,13.7-13.53,13.76C58.38-868.85,52-875.17,52.11-882.51z"/>
	<path class="st1" d="M41.1-868.72c0.3-0.4,0.51-1,0.92-1.2c3.18-1.54,6.4-2.98,9.85-3.85c0.55-0.14,0.79,0.03,1.1,0.45
		c2.45,3.33,5.65,5.47,9.8,6.07c2.58,0.37,5.14,0.39,7.67-0.35c3.31-0.97,5.95-2.86,8-5.6c0.54-0.72,1.04-0.85,2.16-0.44
		c2.39,0.88,4.77,1.77,7.14,2.71c0.78,0.31,1.53,0.73,2.22,1.21c0.28,0.2,0.55,0.71,0.5,1.03c-0.42,2.99-1.49,5.63-3.99,7.56
		c-1.2,0.93-2.4,1.76-3.93,1.97c-0.6,0.08-1.22,0.06-1.83,0.06c-2.47,0-4.68-0.85-6.91-1.84c-2.35-1.04-4.79-1.78-7.45-1.78
		c-2.75,0-5.38,0.46-7.92,1.44c-1.31,0.51-2.57,1.17-3.9,1.62c-0.92,0.31-1.91,0.39-2.87,0.55c-1.95,0.33-3.73-0.11-5.36-1.22
		c-1.84-1.26-3.34-2.82-4.17-4.91C41.71-866.29,41.48-867.42,41.1-868.72z"/>
	<path d="M36.15-894.91c0,7.43-6.15,13.76-13.97,13.55c-7.06-0.19-13.21-5.95-13.2-13.64c0.01-7.43,6.16-13.65,13.85-13.52
		C30.1-908.39,36.16-902.4,36.15-894.91z"/>
	<path d="M109.51-908.76c7.42,0.05,13.64,6.1,13.6,13.76c-0.04,7.39-6.12,13.63-13.78,13.58c-7.36-0.05-13.63-6.1-13.56-13.8
		C95.84-902.73,101.99-908.76,109.51-908.76z"/>
	<path d="M46.05-910.9c-0.06,2.65-0.58,5.17-1.8,7.55c-1.53,2.99-2.2,6.21-1.95,9.54c0.18,2.46,0.82,4.85,1.95,7.08
		c0.97,1.92,1.42,3.96,1.68,6.12c0.3,2.5-0.65,4.38-2.08,6.17c-1.5,1.88-3.43,3.17-5.82,3.61c-2.64,0.48-2.33,0.69-3.4-1.81
		c-1.15-2.67-2.1-5.42-3.13-8.14c-0.23-0.6-0.18-1.08,0.43-1.51c3.37-2.41,5.43-5.71,6.04-9.76c0.84-5.6-0.47-10.6-4.76-14.58
		c-0.39-0.36-0.78-0.77-1.24-1.02c-0.68-0.37-0.7-0.94-0.53-1.51c0.97-3.43,2.32-6.71,3.92-9.9c0.41-0.82,1.14-0.58,1.7-0.49
		c4.36,0.67,7.63,3.53,8.85,7.64C46-911.58,46.01-911.23,46.05-910.9z"/>
	<path d="M89.69-894.2c-0.17-3.72-0.75-6.5-2.07-9.12c-0.97-1.93-1.44-3.98-1.7-6.15c-0.31-2.57,0.68-4.52,2.18-6.35
		c1.51-1.85,3.45-3.09,5.83-3.53c2.74-0.5,2.34-0.55,3.34,1.72c1.19,2.7,2.14,5.5,3.19,8.26c0.29,0.75,0.03,1.2-0.62,1.69
		c-3.47,2.64-5.47,6.12-5.97,10.5c-0.39,3.47,0.07,6.75,1.72,9.84c1.07,2,2.53,3.7,4.38,5.02c0.65,0.46,0.77,1.02,0.54,1.6
		c-1.28,3.31-2.61,6.59-3.93,9.88c-0.34,0.86-1.12,0.6-1.69,0.52c-4.48-0.66-7.88-3.64-8.87-7.69c-0.5-2.06-0.09-4.22,0.65-6.23
		c0.61-1.66,1.48-3.24,1.98-4.93C89.2-891.07,89.46-893.04,89.69-894.2z"/>
	<path d="M82.35-914.26c-2.62-0.06-5.11-0.56-7.47-1.76c-3.01-1.53-6.25-2.23-9.62-1.98c-2.43,0.18-4.8,0.79-7,1.91
		c-1.94,0.98-3.99,1.48-6.18,1.72c-2.27,0.25-4.07-0.47-5.78-1.74c-2.08-1.55-3.54-3.55-4.01-6.13c-0.49-2.65-0.7-2.36,1.78-3.42
		c2.67-1.14,5.42-2.1,8.13-3.14c0.66-0.25,1.14-0.12,1.59,0.48c2.64,3.58,6.16,5.58,10.61,6.06c4.45,0.48,8.5-0.41,11.99-3.28
		c0.98-0.8,1.87-1.74,2.63-2.74c0.49-0.65,1.01-0.78,1.66-0.58c3.39,1,6.66,2.3,9.82,3.91c0.79,0.4,0.57,1.07,0.5,1.61
		c-0.61,4.65-3.92,7.9-7.73,8.96C82.97-914.29,82.65-914.3,82.35-914.26z"/>
</g>
<g>
	<path class="st0" d="M701.81-820.8l2.99,2.68c-3.66,3.33-7.52,5-11.6,5c-4.36,0-8.08-1.54-11.16-4.61
		c-3.08-3.08-4.61-6.8-4.61-11.16c0-4.35,1.54-8.07,4.61-11.16c3.08-3.09,6.8-4.63,11.16-4.63c4.08,0,7.95,1.67,11.6,5l-2.99,2.72
		c-2.75-2.45-5.63-3.67-8.61-3.67c-3.23,0-5.99,1.15-8.29,3.44c-2.3,2.29-3.45,5.06-3.45,8.3c0,3.26,1.15,6.03,3.45,8.32
		c2.3,2.29,5.06,3.44,8.29,3.44C696.18-817.13,699.05-818.36,701.81-820.8z"/>
	<path class="st0" d="M736.12-840.11c3.09,3.09,4.63,6.82,4.63,11.18c0,4.36-1.54,8.09-4.63,11.18c-3.09,3.09-6.82,4.63-11.18,4.63
		c-4.36,0-8.09-1.54-11.18-4.63c-3.09-3.09-4.63-6.82-4.63-11.18c0-4.36,1.54-8.09,4.63-11.18c3.09-3.09,6.82-4.63,11.18-4.63
		C729.3-844.74,733.03-843.2,736.12-840.11z M724.94-840.71c-3.26,0-6.03,1.15-8.33,3.45c-2.3,2.3-3.45,5.07-3.45,8.33
		c0,3.26,1.15,6.04,3.46,8.34c2.3,2.3,5.08,3.46,8.32,3.46c3.26,0,6.03-1.15,8.33-3.46c2.3-2.3,3.45-5.08,3.45-8.34
		c0-3.26-1.15-6.03-3.45-8.33S728.2-840.71,724.94-840.71z"/>
	<path class="st0" d="M750.68-844.34l10.02,17.32l9.98-17.32h3.65v30.89h-4v-22.32l-9.63,16.68l-9.67-16.68v22.32h-4v-30.89H750.68z
		"/>
	<path class="st0" d="M785.06-823.33v9.89h-4v-30.89h8.77c2.48,0.33,4.58,1.36,6.29,3.07c2.05,2.06,3.07,4.53,3.07,7.41
		c0,2.91-1.02,5.39-3.07,7.44c-2.05,2.05-4.52,3.08-7.41,3.08H785.06z M785.06-840.32v12.97h3.65c1.78,0,3.3-0.63,4.57-1.9
		c1.27-1.27,1.9-2.8,1.9-4.6c0-1.79-0.63-3.31-1.9-4.58c-1.27-1.26-2.79-1.89-4.57-1.89H785.06z"/>
	<path class="st0" d="M820.16-844.34h4.02v21.76c-0.35,2.48-1.37,4.58-3.07,6.29c-2.06,2.06-4.54,3.09-7.43,3.09
		s-5.37-1.03-7.42-3.08c-2.05-2.05-3.08-4.53-3.08-7.42v-20.64h4.02v20.64c0,1.78,0.63,3.3,1.9,4.57c1.27,1.27,2.8,1.9,4.59,1.9
		c1.8,0,3.33-0.63,4.6-1.89c1.26-1.26,1.89-2.79,1.89-4.58V-844.34z"/>
	<path class="st0" d="M839.26-840.34v26.89h-4.02v-26.89h-7.2v-4h18.42v4H839.26z"/>
	<path class="st0" d="M866.96-844.34v4h-12.65v9.44h12.65v4h-12.65v9.44h12.65v4.02h-16.64v-30.89H866.96z"/>
	<path class="st0" d="M879.92-823.33h-3.65v9.89h-4v-30.89h8.77c2.48,0.33,4.58,1.36,6.29,3.07c2.05,2.06,3.07,4.53,3.07,7.41
		c0,2.91-1.02,5.39-3.07,7.45c-1.42,1.42-2.5,2.21-3.24,2.39l6.85,10.56h-4.85L879.92-823.33z M876.27-840.32v12.97h3.65
		c1.78,0,3.3-0.63,4.57-1.9c1.27-1.27,1.9-2.8,1.9-4.6c0-1.79-0.63-3.31-1.9-4.58c-1.27-1.26-2.79-1.89-4.57-1.89H876.27z"/>
</g>
<g>
	<path class="st0" d="M697.46-799.7c-1.26-0.42-2.27-1.02-3.05-1.8c-0.78-0.78-1.17-1.74-1.17-2.9c0-1.13,0.4-2.1,1.21-2.91
		c0.81-0.81,1.79-1.22,2.94-1.22c1.14,0,2.11,0.4,2.92,1.21c0.46,0.44,0.84,1.15,1.15,2.12l-2.08,0.82
		c-0.25-0.68-0.48-1.12-0.69-1.33c-0.36-0.35-0.8-0.53-1.31-0.53c-0.52,0-0.96,0.18-1.32,0.54c-0.36,0.36-0.54,0.8-0.54,1.31
		c0,0.52,0.18,0.96,0.54,1.32c0.41,0.4,0.97,0.76,1.68,1.1c1.39,0.45,2.57,1.16,3.53,2.13c1.09,1.07,1.63,2.37,1.63,3.9
		s-0.54,2.83-1.62,3.92c-1.08,1.08-2.38,1.62-3.9,1.62c-1.53,0-2.83-0.54-3.91-1.63c-0.86-0.86-1.41-2.06-1.64-3.58l2.23-0.81
		c0.14,1.31,0.48,2.23,1.03,2.78c0.64,0.64,1.4,0.95,2.29,0.95c0.89,0,1.66-0.32,2.29-0.95c0.64-0.64,0.95-1.4,0.95-2.3
		c0-0.89-0.32-1.66-0.95-2.29C699.08-798.86,698.34-799.34,697.46-799.7z"/>
	<path class="st0" d="M714.18-794.52l2.29,0.82c-0.56,0.78-0.97,1.29-1.22,1.54c-1.23,1.23-2.72,1.85-4.46,1.85
		c-1.74,0-3.22-0.62-4.45-1.85c-1.23-1.23-1.85-2.72-1.85-4.46c0-1.74,0.62-3.23,1.85-4.46c1.23-1.23,2.72-1.85,4.45-1.85
		c1.74,0,3.23,0.62,4.46,1.85c0.25,0.25,0.66,0.76,1.22,1.52l-2.29,0.84c-0.3-0.36-0.49-0.59-0.6-0.7c-0.77-0.77-1.7-1.15-2.79-1.15
		c-1.09,0-2.01,0.39-2.79,1.16c-0.77,0.77-1.16,1.7-1.16,2.8c0,1.09,0.39,2.01,1.16,2.79c0.77,0.77,1.7,1.16,2.79,1.16
		c1.09,0,2.03-0.38,2.8-1.15C713.68-793.93,713.88-794.16,714.18-794.52z"/>
	<path class="st0" d="M721.6-806.23c0.32,0.31,0.48,0.69,0.48,1.14c0,0.45-0.16,0.83-0.48,1.14c-0.32,0.31-0.7,0.47-1.14,0.47
		c-0.44,0-0.81-0.16-1.13-0.47c-0.32-0.31-0.48-0.69-0.48-1.14c0-0.45,0.16-0.83,0.48-1.14c0.32-0.31,0.69-0.47,1.13-0.47
		C720.9-806.69,721.28-806.54,721.6-806.23z M721.61-802.01v11.4h-2.29v-11.4H721.61z"/>
	<path class="st0" d="M728.66-793.19c0.38,0.34,1.08,0.51,2.09,0.51c1.09,0,2.03-0.38,2.8-1.15c0.1-0.1,0.29-0.33,0.59-0.69
		l2.29,0.82c-0.56,0.78-0.97,1.29-1.22,1.54c-1.23,1.23-2.72,1.85-4.46,1.85c-1.74,0-3.22-0.62-4.45-1.85
		c-1.23-1.23-1.85-2.72-1.85-4.46c0-1.74,0.62-3.23,1.85-4.46c1.23-1.23,2.72-1.85,4.45-1.85c1.49,0,2.8,0.45,3.92,1.35
		c0.18,0.16,0.37,0.32,0.54,0.5c0.07,0.07,0.28,0.31,0.63,0.7l-1.15,1.16L728.66-793.19z M732.5-800.28c-0.26-0.2-0.84-0.3-1.74-0.3
		c-1.09,0-2.01,0.39-2.79,1.16c-0.77,0.77-1.16,1.7-1.16,2.8c0,0.89,0.1,1.47,0.3,1.74L732.5-800.28z"/>
	<path class="st0" d="M741.4-798.95v8.34h-2.3v-11.4h2.3v1.33c0.48-1.3,1.44-1.95,2.89-1.95c1.23,0,2.21,0.44,2.94,1.31
		c0.73,0.88,1.1,1.97,1.12,3.3v7.41h-2.29v-7.32c0-0.66-0.24-1.22-0.72-1.69c-0.48-0.47-1.05-0.7-1.72-0.7
		c-0.66,0-1.23,0.23-1.71,0.69C741.66-799.36,741.49-799.13,741.4-798.95z"/>
	<path class="st0" d="M760.75-794.52l2.29,0.82c-0.56,0.78-0.97,1.29-1.22,1.54c-1.23,1.23-2.72,1.85-4.46,1.85
		c-1.74,0-3.22-0.62-4.45-1.85c-1.23-1.23-1.85-2.72-1.85-4.46c0-1.74,0.62-3.23,1.85-4.46c1.23-1.23,2.72-1.85,4.45-1.85
		c1.74,0,3.23,0.62,4.46,1.85c0.25,0.25,0.66,0.76,1.22,1.52l-2.29,0.84c-0.3-0.36-0.49-0.59-0.6-0.7c-0.77-0.77-1.7-1.15-2.79-1.15
		c-1.09,0-2.01,0.39-2.79,1.16c-0.77,0.77-1.16,1.7-1.16,2.8c0,1.09,0.39,2.01,1.16,2.79c0.77,0.77,1.7,1.16,2.79,1.16
		c1.09,0,2.03-0.38,2.8-1.15C760.25-793.93,760.45-794.16,760.75-794.52z"/>
	<path class="st0" d="M769.24-793.19c0.38,0.34,1.08,0.51,2.09,0.51c1.09,0,2.03-0.38,2.8-1.15c0.1-0.1,0.29-0.33,0.59-0.69
		l2.29,0.82c-0.56,0.78-0.97,1.29-1.22,1.54c-1.23,1.23-2.72,1.85-4.46,1.85c-1.74,0-3.22-0.62-4.45-1.85
		c-1.23-1.23-1.85-2.72-1.85-4.46c0-1.74,0.62-3.23,1.85-4.46c1.23-1.23,2.72-1.85,4.45-1.85c1.49,0,2.8,0.45,3.92,1.35
		c0.18,0.16,0.37,0.32,0.54,0.5c0.07,0.07,0.28,0.31,0.63,0.7l-1.15,1.16L769.24-793.19z M773.08-800.28
		c-0.26-0.2-0.84-0.3-1.74-0.3c-1.09,0-2.01,0.39-2.79,1.16c-0.77,0.77-1.16,1.7-1.16,2.8c0,0.89,0.1,1.47,0.3,1.74L773.08-800.28z"
		/>
	<path class="st0" d="M801.24-794.83l1.72,1.54c-2.1,1.91-4.32,2.87-6.66,2.87c-2.5,0-4.64-0.88-6.4-2.65
		c-1.77-1.76-2.65-3.9-2.65-6.4c0-2.5,0.88-4.63,2.65-6.4c1.77-1.77,3.9-2.66,6.4-2.66c2.34,0,4.56,0.96,6.66,2.87l-1.72,1.56
		c-1.58-1.4-3.23-2.1-4.94-2.1c-1.85,0-3.44,0.66-4.76,1.97c-1.32,1.31-1.98,2.9-1.98,4.76c0,1.87,0.66,3.46,1.98,4.77
		c1.32,1.31,2.9,1.97,4.76,1.97C798.01-792.72,799.65-793.42,801.24-794.83z"/>
	<path class="st0" d="M811.35-802.94c1.74,0,3.23,0.62,4.46,1.85c1.23,1.23,1.84,2.72,1.84,4.46c0,1.74-0.61,3.23-1.84,4.46
		c-1.23,1.23-2.72,1.85-4.46,1.85c-1.74,0-3.22-0.62-4.45-1.85c-1.23-1.23-1.85-2.72-1.85-4.46c0-1.74,0.62-3.23,1.85-4.46
		C808.13-802.32,809.61-802.94,811.35-802.94z M808.55-799.41c-0.77,0.78-1.16,1.71-1.16,2.79c0,1.09,0.39,2.02,1.16,2.79
		c0.77,0.77,1.7,1.15,2.8,1.15c1.09,0,2.03-0.38,2.8-1.15c0.77-0.77,1.16-1.7,1.16-2.79c0-1.09-0.39-2.02-1.16-2.79
		c-0.77-0.78-1.7-1.16-2.8-1.16C810.26-800.58,809.32-800.19,808.55-799.41z"/>
	<path class="st0" d="M820.31-802.01h2.29v1.06c0.44-1.11,1.3-1.67,2.56-1.67c1.26,0,1.96,0.64,2.12,1.91
		c0.36-1.27,1.36-1.91,2.99-1.91c1.61,0,2.41,0.98,2.41,2.94v9.07h-2.3v-8.02c0-1.12-0.45-1.68-1.36-1.68c-0.38,0-0.7,0.13-0.97,0.4
		c-0.27,0.27-0.41,1.16-0.41,2.68v6.62h-2.29l0.01-8.02c0-1.12-0.46-1.68-1.37-1.68c-0.38,0-0.7,0.13-0.97,0.4
		c-0.24,0.23-0.37,0.83-0.4,1.82v7.49h-2.29V-802.01z"/>
	<path class="st0" d="M836.02-802.01h2.29v1.06c0.44-1.11,1.3-1.67,2.56-1.67c1.26,0,1.96,0.64,2.12,1.91
		c0.36-1.27,1.36-1.91,2.99-1.91c1.61,0,2.41,0.98,2.41,2.94v9.07h-2.3v-8.02c0-1.12-0.45-1.68-1.36-1.68c-0.38,0-0.7,0.13-0.97,0.4
		c-0.27,0.27-0.41,1.16-0.41,2.68v6.62h-2.29l0.01-8.02c0-1.12-0.46-1.68-1.37-1.68c-0.38,0-0.7,0.13-0.97,0.4
		c-0.24,0.23-0.37,0.83-0.4,1.82v7.49h-2.29V-802.01z"/>
	<path class="st0" d="M856.34-790.45c-1.44,0-2.6-0.44-3.48-1.32c-0.88-0.88-1.33-1.98-1.35-3.3v-6.93h2.3v6.85
		c0,0.66,0.24,1.22,0.72,1.69c0.48,0.47,1.08,0.71,1.79,0.71c0.66,0,1.23-0.23,1.71-0.7c0.48-0.47,0.73-1.04,0.73-1.7v-6.85h2.29
		v6.93c-0.02,1.32-0.47,2.42-1.34,3.3C858.84-790.89,857.71-790.45,856.34-790.45z"/>
	<path class="st0" d="M866.68-798.95v8.34h-2.3v-11.4h2.3v1.33c0.48-1.3,1.44-1.95,2.89-1.95c1.23,0,2.21,0.44,2.94,1.31
		c0.73,0.88,1.1,1.97,1.12,3.3v7.41h-2.29v-7.32c0-0.66-0.24-1.22-0.72-1.69c-0.48-0.47-1.05-0.7-1.72-0.7
		c-0.66,0-1.23,0.23-1.71,0.69C866.94-799.36,866.76-799.13,866.68-798.95z"/>
	<path class="st0" d="M879.47-806.23c0.32,0.31,0.48,0.69,0.48,1.14c0,0.45-0.16,0.83-0.48,1.14c-0.32,0.31-0.7,0.47-1.14,0.47
		c-0.44,0-0.81-0.16-1.13-0.47c-0.32-0.31-0.48-0.69-0.48-1.14c0-0.45,0.16-0.83,0.48-1.14c0.32-0.31,0.69-0.47,1.13-0.47
		C878.77-806.69,879.15-806.54,879.47-806.23z M879.48-802.01v11.4h-2.29v-11.4H879.48z"/>
	<path class="st0" d="M884.37-802.01v-4.28h2.29v4.28h2.05v2.29h-2.05v9.11h-2.29v-9.11h-2.05v-2.29H884.37z"/>
	<path class="st0" d="M894.19-786.77h-2.43l3.04-6.37l-4.24-8.86h2.58l2.89,6.24l2.89-6.24h2.57L894.19-786.77z"/>
	<path class="st0" d="M925.56-794.83l1.72,1.54c-2.1,1.91-4.32,2.87-6.66,2.87c-2.5,0-4.64-0.88-6.4-2.65
		c-1.77-1.76-2.65-3.9-2.65-6.4c0-2.5,0.88-4.63,2.65-6.4c1.77-1.77,3.9-2.66,6.4-2.66c2.34,0,4.56,0.96,6.66,2.87l-1.72,1.56
		c-1.58-1.4-3.23-2.1-4.94-2.1c-1.85,0-3.44,0.66-4.76,1.97c-1.32,1.31-1.98,2.9-1.98,4.76c0,1.87,0.66,3.46,1.98,4.77
		c1.32,1.31,2.9,1.97,4.76,1.97C922.33-792.72,923.98-793.42,925.56-794.83z"/>
	<path class="st0" d="M932.34-808.34v17.74h-2.3v-17.74H932.34z"/>
	<path class="st0" d="M940.49-790.45c-1.44,0-2.6-0.44-3.48-1.32c-0.88-0.88-1.33-1.98-1.35-3.3v-6.93h2.3v6.85
		c0,0.66,0.24,1.22,0.72,1.69c0.48,0.47,1.08,0.71,1.79,0.71c0.66,0,1.23-0.23,1.71-0.7c0.48-0.47,0.73-1.04,0.73-1.7v-6.85h2.29
		v6.93c-0.02,1.32-0.47,2.42-1.34,3.3C942.99-790.89,941.87-790.45,940.49-790.45z"/>
	<path class="st0" d="M950.83-792.02v1.42h-2.29v-17.72h2.29v7.11c1.11-1.14,2.4-1.72,3.87-1.72c1.74,0,3.23,0.62,4.46,1.85
		c1.23,1.23,1.84,2.72,1.84,4.46c0,1.74-0.61,3.23-1.84,4.46c-1.23,1.23-2.72,1.85-4.46,1.85
		C953.23-790.31,951.94-790.88,950.83-792.02z M950.83-797.51v1.78c0.14,0.69,0.49,1.33,1.06,1.89c0.78,0.77,1.71,1.15,2.8,1.15
		c1.09,0,2.03-0.38,2.8-1.15c0.77-0.77,1.16-1.7,1.16-2.79c0-1.09-0.39-2.02-1.16-2.79c-0.77-0.78-1.7-1.16-2.8-1.16
		c-1.09,0-2.03,0.39-2.8,1.16C951.32-798.84,950.97-798.21,950.83-797.51z"/>
</g>
<g>
	<path class="st0" d="M613.37-843.15c-7.51-0.01-13.67-6.17-13.57-13.78c0.09-7.21,6-13.44,13.71-13.39
		c7.37,0.05,13.57,6.14,13.45,13.82C626.85-849.25,620.92-843.17,613.37-843.15z"/>
	<g>
		<path class="st0" d="M599.11-801.51c-0.11-7.26,5.98-13.65,13.55-13.65c7.51,0,13.58,6.14,13.65,13.48
			c0.08,7.54-6.19,13.7-13.53,13.76C605.38-787.85,599-794.17,599.11-801.51z"/>
		<path class="st0" d="M588.1-787.72c0.3-0.4,0.51-1,0.92-1.2c3.18-1.54,6.4-2.98,9.85-3.85c0.55-0.14,0.79,0.03,1.1,0.45
			c2.45,3.33,5.65,5.47,9.79,6.07c2.58,0.37,5.14,0.39,7.67-0.35c3.31-0.97,5.95-2.86,8-5.6c0.54-0.72,1.04-0.85,2.16-0.44
			c2.39,0.88,4.77,1.77,7.14,2.71c0.78,0.31,1.53,0.73,2.22,1.21c0.28,0.2,0.55,0.71,0.5,1.03c-0.42,2.99-1.49,5.63-3.99,7.56
			c-1.2,0.93-2.4,1.76-3.92,1.97c-0.6,0.08-1.22,0.06-1.83,0.06c-2.47,0-4.68-0.85-6.91-1.84c-2.35-1.04-4.79-1.78-7.45-1.78
			c-2.75,0-5.38,0.46-7.92,1.44c-1.31,0.51-2.57,1.17-3.9,1.62c-0.92,0.31-1.91,0.39-2.87,0.55c-1.95,0.33-3.73-0.11-5.36-1.22
			c-1.84-1.26-3.34-2.82-4.17-4.91C588.71-785.29,588.48-786.42,588.1-787.72z"/>
		<path class="st0" d="M583.15-813.91c0,7.43-6.15,13.76-13.97,13.55c-7.06-0.19-13.21-5.95-13.2-13.64
			c0.01-7.43,6.16-13.65,13.85-13.52C577.1-827.39,583.16-821.4,583.15-813.91z"/>
		<path class="st0" d="M656.51-827.76c7.42,0.05,13.64,6.1,13.6,13.76c-0.04,7.39-6.12,13.63-13.78,13.58
			c-7.36-0.05-13.63-6.1-13.56-13.8C642.84-821.73,648.99-827.76,656.51-827.76z"/>
		<path class="st0" d="M593.05-829.9c-0.06,2.65-0.58,5.17-1.8,7.55c-1.53,2.99-2.2,6.21-1.95,9.54c0.18,2.46,0.82,4.85,1.95,7.08
			c0.97,1.92,1.42,3.96,1.68,6.12c0.3,2.5-0.65,4.38-2.08,6.17c-1.5,1.88-3.43,3.17-5.82,3.61c-2.64,0.48-2.33,0.69-3.4-1.81
			c-1.15-2.67-2.1-5.42-3.13-8.14c-0.23-0.6-0.18-1.08,0.43-1.51c3.37-2.41,5.43-5.71,6.04-9.76c0.84-5.6-0.47-10.6-4.76-14.58
			c-0.39-0.36-0.78-0.77-1.24-1.02c-0.68-0.37-0.7-0.94-0.53-1.51c0.97-3.43,2.32-6.71,3.92-9.9c0.41-0.82,1.14-0.58,1.7-0.49
			c4.36,0.67,7.63,3.53,8.85,7.64C593-830.58,593.01-830.23,593.05-829.9z"/>
		<path class="st0" d="M636.69-813.2c-0.17-3.72-0.75-6.5-2.07-9.12c-0.97-1.93-1.44-3.98-1.7-6.15c-0.31-2.57,0.68-4.52,2.18-6.35
			c1.51-1.85,3.45-3.09,5.83-3.53c2.74-0.5,2.34-0.55,3.34,1.72c1.19,2.7,2.14,5.5,3.19,8.26c0.29,0.75,0.03,1.2-0.62,1.69
			c-3.47,2.64-5.47,6.12-5.97,10.5c-0.39,3.47,0.07,6.75,1.72,9.84c1.07,2,2.53,3.7,4.38,5.02c0.65,0.46,0.77,1.02,0.54,1.6
			c-1.28,3.31-2.61,6.59-3.93,9.88c-0.34,0.86-1.12,0.6-1.69,0.52c-4.48-0.66-7.88-3.64-8.87-7.69c-0.5-2.06-0.09-4.22,0.65-6.23
			c0.61-1.66,1.48-3.24,1.98-4.93C636.2-810.07,636.46-812.04,636.69-813.2z"/>
		<path class="st0" d="M629.35-833.26c-2.62-0.06-5.11-0.56-7.47-1.76c-3.01-1.53-6.25-2.23-9.62-1.98c-2.43,0.18-4.8,0.79-7,1.91
			c-1.94,0.98-3.99,1.48-6.18,1.72c-2.27,0.25-4.07-0.47-5.78-1.74c-2.08-1.55-3.54-3.55-4.01-6.13c-0.49-2.65-0.7-2.36,1.78-3.42
			c2.67-1.14,5.42-2.1,8.13-3.14c0.66-0.25,1.14-0.12,1.59,0.48c2.64,3.58,6.16,5.58,10.61,6.06c4.45,0.48,8.49-0.41,11.99-3.28
			c0.98-0.8,1.87-1.74,2.63-2.74c0.49-0.65,1.01-0.78,1.66-0.58c3.39,1,6.66,2.3,9.82,3.91c0.79,0.4,0.57,1.07,0.5,1.61
			c-0.61,4.65-3.92,7.9-7.73,8.96C629.97-833.29,629.65-833.3,629.35-833.26z"/>
	</g>
</g>
<g>
	<path d="M249.7-359.22c-1.18-1.29-2.55-2.28-4.11-2.96c-1.56-0.68-3.25-1.02-5.06-1.02c-3.13,0-5.63,1.01-7.51,3.03
		c-1.88,2.02-2.82,4.7-2.82,8.04c0,3.48,0.95,6.21,2.84,8.2c1.89,1.99,4.51,2.98,7.85,2.98c1.86,0,3.52-0.35,4.97-1.04
		c1.46-0.69,2.74-1.75,3.84-3.16v8.82c-1.41,0.8-2.92,1.4-4.53,1.8c-1.61,0.4-3.32,0.6-5.13,0.6c-5.24,0-9.52-1.67-12.82-5.01
		c-3.3-3.34-4.96-7.67-4.96-12.98c0-5.39,1.71-9.73,5.13-13.03c3.42-3.3,7.9-4.96,13.42-4.96c1.74,0,3.34,0.17,4.8,0.51
		c1.46,0.34,2.82,0.86,4.09,1.57V-359.22z"/>
	<path class="st1" d="M253.68-341.37l6.35-3.46c0.47,1.67,1.34,2.94,2.61,3.81c1.27,0.87,2.9,1.31,4.9,1.31
		c1.72,0,3.06-0.39,4.04-1.18c0.98-0.79,1.46-1.86,1.46-3.23c0-1.81-1.74-3.36-5.22-4.66c-1.18-0.42-2.08-0.78-2.72-1.06
		c-3.57-1.48-6.07-2.99-7.5-4.52s-2.13-3.39-2.13-5.57c0-2.99,1.17-5.41,3.51-7.27c2.34-1.86,5.44-2.79,9.29-2.79
		c2.59,0,4.8,0.48,6.65,1.43c1.85,0.95,3.19,2.31,4.04,4.07l-5.43,3.74c-0.4-1.06-1.1-1.9-2.1-2.52c-1-0.62-2.16-0.94-3.47-0.94
		c-1.46,0-2.63,0.35-3.51,1.04s-1.32,1.62-1.32,2.77c0,1.74,1.98,3.33,5.93,4.76c1.25,0.45,2.21,0.81,2.89,1.09
		c3.08,1.22,5.29,2.6,6.61,4.15c1.33,1.54,1.99,3.46,1.99,5.77c0,3.34-1.21,5.96-3.63,7.85c-2.42,1.89-5.76,2.84-10.02,2.84
		c-3.27,0-5.99-0.61-8.15-1.83S254.9-338.85,253.68-341.37z"/>
	<path d="M313.26-359.22c-1.18-1.29-2.55-2.28-4.11-2.96c-1.56-0.68-3.25-1.02-5.06-1.02c-3.13,0-5.63,1.01-7.51,3.03
		c-1.88,2.02-2.82,4.7-2.82,8.04c0,3.48,0.95,6.21,2.84,8.2c1.89,1.99,4.51,2.98,7.85,2.98c1.86,0,3.52-0.35,4.97-1.04
		c1.46-0.69,2.74-1.75,3.84-3.16v8.82c-1.41,0.8-2.92,1.4-4.53,1.8c-1.61,0.4-3.32,0.6-5.13,0.6c-5.24,0-9.52-1.67-12.82-5.01
		c-3.3-3.34-4.96-7.67-4.96-12.98c0-5.39,1.71-9.73,5.13-13.03c3.42-3.3,7.9-4.96,13.42-4.96c1.74,0,3.34,0.17,4.8,0.51
		c1.46,0.34,2.82,0.86,4.09,1.57V-359.22z"/>
	<path d="M346.07-359.22c-1.18-1.29-2.55-2.28-4.11-2.96c-1.56-0.68-3.25-1.02-5.06-1.02c-3.13,0-5.63,1.01-7.51,3.03
		c-1.88,2.02-2.82,4.7-2.82,8.04c0,3.48,0.95,6.21,2.84,8.2c1.89,1.99,4.51,2.98,7.85,2.98c1.86,0,3.52-0.35,4.97-1.04
		c1.46-0.69,2.74-1.75,3.84-3.16v8.82c-1.41,0.8-2.92,1.4-4.53,1.8c-1.61,0.4-3.32,0.6-5.13,0.6c-5.24,0-9.52-1.67-12.82-5.01
		c-3.3-3.34-4.96-7.67-4.96-12.98c0-5.39,1.71-9.73,5.13-13.03c3.42-3.3,7.9-4.96,13.42-4.96c1.74,0,3.34,0.17,4.8,0.51
		c1.46,0.34,2.82,0.86,4.09,1.57V-359.22z"/>
</g>
<g>
	<path d="M158.92-379.99c-7.12-0.01-12.95-5.84-12.86-13.06c0.09-6.83,5.69-12.74,12.99-12.69c6.99,0.05,12.86,5.82,12.74,13.1
		C171.69-385.77,166.08-380.01,158.92-379.99z"/>
	<path class="st1" d="M145.41-340.53c-0.1-6.88,5.67-12.93,12.84-12.93c7.12,0,12.87,5.82,12.93,12.77
		c0.07,7.15-5.87,12.98-12.82,13.04C151.34-327.59,145.3-333.58,145.41-340.53z"/>
	<path class="st1" d="M134.97-327.47c0.28-0.38,0.48-0.95,0.87-1.14c3.01-1.46,6.07-2.83,9.33-3.65c0.52-0.13,0.74,0.03,1.04,0.43
		c2.32,3.15,5.35,5.18,9.28,5.75c2.44,0.36,4.87,0.37,7.27-0.33c3.13-0.92,5.64-2.71,7.58-5.31c0.51-0.68,0.99-0.81,2.04-0.42
		c2.26,0.84,4.52,1.68,6.76,2.57c0.74,0.29,1.45,0.69,2.1,1.15c0.27,0.19,0.52,0.67,0.47,0.98c-0.39,2.83-1.42,5.33-3.78,7.16
		c-1.14,0.88-2.27,1.67-3.72,1.87c-0.57,0.08-1.15,0.06-1.73,0.06c-2.34,0-4.43-0.81-6.54-1.74c-2.22-0.99-4.54-1.68-7.06-1.69
		c-2.61,0-5.09,0.44-7.5,1.37c-1.24,0.48-2.44,1.11-3.7,1.53c-0.87,0.29-1.81,0.37-2.72,0.52c-1.85,0.31-3.53-0.11-5.08-1.16
		c-1.75-1.19-3.17-2.67-3.95-4.65C135.55-325.17,135.33-326.24,134.97-327.47z"/>
	<path d="M130.29-352.29c0,7.04-5.83,13.04-13.24,12.84c-6.69-0.18-12.51-5.63-12.5-12.93c0.01-7.04,5.84-12.93,13.12-12.81
		C124.55-365.06,130.29-359.39,130.29-352.29z"/>
	<path d="M199.79-365.41c7.03,0.05,12.92,5.78,12.89,13.04c-0.03,7-5.8,12.92-13.06,12.86c-6.97-0.05-12.92-5.78-12.85-13.08
		C186.84-359.7,192.67-365.41,199.79-365.41z"/>
	<path d="M139.67-367.44c-0.06,2.51-0.55,4.9-1.7,7.15c-1.45,2.84-2.08,5.88-1.85,9.04c0.17,2.33,0.78,4.59,1.85,6.71
		c0.92,1.82,1.35,3.75,1.59,5.79c0.28,2.37-0.62,4.15-1.97,5.85c-1.42,1.78-3.25,3-5.52,3.42c-2.5,0.46-2.21,0.65-3.23-1.71
		c-1.09-2.53-1.99-5.13-2.97-7.71c-0.21-0.57-0.17-1.02,0.41-1.43c3.19-2.28,5.15-5.41,5.72-9.24c0.8-5.31-0.45-10.05-4.51-13.81
		c-0.37-0.34-0.74-0.73-1.17-0.96c-0.65-0.35-0.66-0.89-0.5-1.43c0.92-3.25,2.2-6.36,3.71-9.38c0.39-0.78,1.08-0.55,1.61-0.46
		c4.14,0.64,7.23,3.35,8.38,7.24C139.62-368.08,139.62-367.75,139.67-367.44z"/>
	<path d="M181.02-351.62c-0.16-3.52-0.71-6.16-1.96-8.65c-0.92-1.83-1.36-3.77-1.61-5.82c-0.29-2.44,0.65-4.28,2.06-6.02
		c1.43-1.76,3.27-2.93,5.52-3.34c2.6-0.48,2.22-0.52,3.16,1.63c1.12,2.56,2.02,5.21,3.02,7.82c0.27,0.71,0.03,1.14-0.58,1.6
		c-3.29,2.5-5.19,5.8-5.66,9.95c-0.37,3.29,0.07,6.4,1.63,9.32c1.02,1.9,2.39,3.51,4.15,4.75c0.62,0.44,0.73,0.96,0.51,1.52
		c-1.21,3.13-2.47,6.24-3.72,9.36c-0.33,0.82-1.06,0.57-1.6,0.49c-4.24-0.63-7.46-3.45-8.41-7.29c-0.48-1.95-0.09-4,0.61-5.9
		c0.58-1.58,1.41-3.07,1.88-4.67C180.55-348.65,180.79-350.51,181.02-351.62z"/>
	<path d="M174.06-370.62c-2.48-0.06-4.84-0.53-7.07-1.67c-2.86-1.45-5.92-2.12-9.11-1.88c-2.31,0.17-4.54,0.75-6.64,1.81
		c-1.84,0.93-3.78,1.4-5.86,1.63c-2.16,0.23-3.86-0.45-5.48-1.65c-1.97-1.47-3.35-3.37-3.8-5.8c-0.46-2.51-0.66-2.24,1.68-3.24
		c2.53-1.08,5.14-1.99,7.71-2.97c0.63-0.24,1.08-0.12,1.5,0.45c2.5,3.39,5.84,5.29,10.05,5.74c4.22,0.46,8.05-0.39,11.36-3.1
		c0.92-0.76,1.77-1.65,2.49-2.6c0.47-0.61,0.95-0.74,1.57-0.55c3.21,0.95,6.31,2.18,9.3,3.71c0.75,0.38,0.54,1.01,0.47,1.53
		c-0.57,4.4-3.71,7.48-7.32,8.49C174.65-370.65,174.35-370.66,174.06-370.62z"/>
</g>
<g>
	<path class="st0" d="M789.17-400.38c-1.11-1.22-2.39-2.15-3.87-2.79c-1.47-0.64-3.06-0.96-4.76-0.96c-2.94,0-5.3,0.95-7.07,2.85
		c-1.77,1.9-2.65,4.42-2.65,7.56c0,3.27,0.89,5.84,2.67,7.71c1.78,1.87,4.24,2.8,7.38,2.8c1.75,0,3.31-0.33,4.68-0.98
		c1.37-0.65,2.58-1.64,3.62-2.97v8.29c-1.33,0.75-2.75,1.32-4.26,1.69c-1.51,0.38-3.12,0.56-4.83,0.56c-4.93,0-8.95-1.57-12.06-4.71
		s-4.66-7.21-4.66-12.21c0-5.06,1.61-9.15,4.83-12.26c3.22-3.11,7.43-4.66,12.62-4.66c1.64,0,3.14,0.16,4.51,0.48
		c1.37,0.32,2.65,0.81,3.85,1.48V-400.38z"/>
	<path class="st1" d="M792.92-383.6l5.97-3.25c0.44,1.57,1.26,2.76,2.46,3.58s2.73,1.23,4.61,1.23c1.61,0,2.88-0.37,3.8-1.11
		s1.38-1.75,1.38-3.04c0-1.7-1.64-3.16-4.91-4.38c-1.11-0.4-1.96-0.73-2.55-1c-3.36-1.39-5.71-2.81-7.05-4.25
		c-1.34-1.44-2.01-3.19-2.01-5.24c0-2.81,1.1-5.09,3.3-6.83c2.2-1.75,5.11-2.62,8.74-2.62c2.43,0,4.52,0.45,6.25,1.34
		c1.74,0.9,3,2.17,3.8,3.83l-5.11,3.52c-0.38-1-1.03-1.79-1.97-2.37c-0.94-0.59-2.03-0.88-3.27-0.88c-1.37,0-2.47,0.33-3.3,0.98
		c-0.83,0.65-1.24,1.52-1.24,2.6c0,1.64,1.86,3.13,5.57,4.48c1.17,0.42,2.08,0.76,2.72,1.03c2.9,1.15,4.97,2.45,6.22,3.9
		c1.25,1.45,1.87,3.26,1.87,5.42c0,3.14-1.14,5.6-3.42,7.38s-5.42,2.67-9.42,2.67c-3.08,0-5.63-0.58-7.66-1.72
		C795.66-379.47,794.07-381.23,792.92-383.6z"/>
	<path class="st0" d="M848.95-400.38c-1.11-1.22-2.39-2.15-3.87-2.79c-1.47-0.64-3.06-0.96-4.76-0.96c-2.94,0-5.3,0.95-7.07,2.85
		c-1.77,1.9-2.65,4.42-2.65,7.56c0,3.27,0.89,5.84,2.67,7.71c1.78,1.87,4.24,2.8,7.38,2.8c1.75,0,3.31-0.33,4.68-0.98
		c1.37-0.65,2.58-1.64,3.62-2.97v8.29c-1.33,0.75-2.75,1.32-4.26,1.69c-1.51,0.38-3.12,0.56-4.83,0.56c-4.93,0-8.95-1.57-12.06-4.71
		s-4.66-7.21-4.66-12.21c0-5.06,1.61-9.15,4.83-12.26c3.22-3.11,7.43-4.66,12.62-4.66c1.64,0,3.14,0.16,4.51,0.48
		c1.37,0.32,2.65,0.81,3.85,1.48V-400.38z"/>
	<path class="st0" d="M879.81-400.38c-1.11-1.22-2.39-2.15-3.87-2.79c-1.47-0.64-3.06-0.96-4.76-0.96c-2.94,0-5.3,0.95-7.07,2.85
		c-1.77,1.9-2.65,4.42-2.65,7.56c0,3.27,0.89,5.84,2.67,7.71c1.78,1.87,4.24,2.8,7.38,2.8c1.75,0,3.31-0.33,4.68-0.98
		c1.37-0.65,2.58-1.64,3.62-2.97v8.29c-1.33,0.75-2.75,1.32-4.26,1.69c-1.51,0.38-3.12,0.56-4.83,0.56c-4.93,0-8.95-1.57-12.06-4.71
		s-4.66-7.21-4.66-12.21c0-5.06,1.61-9.15,4.83-12.26c3.22-3.11,7.43-4.66,12.62-4.66c1.64,0,3.14,0.16,4.51,0.48
		c1.37,0.32,2.65,0.81,3.85,1.48V-400.38z"/>
</g>
<path class="st0" d="M703.8-419.92c-6.69-0.01-12.18-5.49-12.09-12.28c0.08-6.43,5.35-11.98,12.22-11.93
	c6.57,0.05,12.09,5.47,11.98,12.32C715.81-425.36,710.52-419.94,703.8-419.92z"/>
<path class="st1" d="M691.09-382.81c-0.1-6.47,5.33-12.16,12.08-12.16c6.69,0,12.1,5.47,12.17,12.01
	c0.07,6.72-5.52,12.2-12.06,12.26C696.67-370.64,690.98-376.27,691.09-382.81z"/>
<path class="st1" d="M681.27-370.52c0.26-0.36,0.46-0.89,0.82-1.07c2.83-1.38,5.7-2.66,8.78-3.43c0.49-0.12,0.7,0.02,0.98,0.4
	c2.18,2.96,5.03,4.87,8.73,5.41c2.3,0.33,4.58,0.35,6.84-0.31c2.95-0.86,5.3-2.54,7.13-4.99c0.48-0.64,0.93-0.76,1.92-0.39
	c2.13,0.79,4.25,1.58,6.36,2.42c0.69,0.28,1.36,0.65,1.98,1.08c0.25,0.17,0.49,0.63,0.45,0.92c-0.37,2.66-1.33,5.01-3.56,6.73
	c-1.07,0.83-2.14,1.57-3.5,1.76c-0.54,0.07-1.09,0.06-1.63,0.06c-2.2,0-4.17-0.76-6.15-1.64c-2.09-0.93-4.27-1.58-6.64-1.59
	c-2.45,0-4.79,0.41-7.06,1.29c-1.17,0.45-2.29,1.04-3.48,1.44c-0.82,0.28-1.7,0.35-2.56,0.49c-1.74,0.29-3.32-0.1-4.78-1.09
	c-1.64-1.12-2.98-2.51-3.72-4.37C681.82-368.36,681.61-369.37,681.27-370.52z"/>
<path class="st0" d="M676.87-393.87c0,6.62-5.48,12.26-12.45,12.08c-6.29-0.17-11.77-5.3-11.76-12.16
	c0.01-6.62,5.49-12.16,12.34-12.04C671.47-405.88,676.87-400.54,676.87-393.87z"/>
<path class="st0" d="M742.23-406.21c6.61,0.04,12.16,5.43,12.12,12.26c-0.03,6.58-5.45,12.15-12.28,12.1
	c-6.56-0.05-12.15-5.43-12.08-12.3C730.06-400.84,735.53-406.21,742.23-406.21z"/>
<path class="st0" d="M685.69-408.11c-0.06,2.36-0.52,4.61-1.6,6.73c-1.36,2.67-1.96,5.53-1.74,8.51c0.16,2.2,0.73,4.32,1.74,6.31
	c0.87,1.71,1.27,3.52,1.5,5.45c0.27,2.22-0.58,3.9-1.85,5.5c-1.34,1.68-3.06,2.82-5.19,3.21c-2.35,0.43-2.07,0.61-3.03-1.61
	c-1.03-2.38-1.87-4.83-2.79-7.25c-0.2-0.53-0.16-0.96,0.39-1.35c3-2.14,4.84-5.08,5.38-8.69c0.75-4.99-0.42-9.45-4.24-12.99
	c-0.35-0.32-0.69-0.68-1.1-0.91c-0.61-0.33-0.62-0.83-0.47-1.35c0.86-3.06,2.07-5.98,3.49-8.82c0.37-0.73,1.01-0.51,1.52-0.44
	c3.89,0.6,6.8,3.15,7.88,6.81C685.64-408.72,685.64-408.41,685.69-408.11z"/>
<path class="st0" d="M724.57-393.24c-0.15-3.31-0.67-5.79-1.84-8.13c-0.86-1.72-1.28-3.54-1.51-5.48c-0.28-2.29,0.61-4.03,1.94-5.66
	c1.34-1.65,3.08-2.75,5.19-3.14c2.44-0.45,2.09-0.49,2.97,1.53c1.06,2.4,1.9,4.9,2.84,7.36c0.26,0.67,0.03,1.07-0.55,1.51
	c-3.1,2.35-4.88,5.46-5.32,9.36c-0.35,3.09,0.06,6.02,1.53,8.77c0.95,1.79,2.25,3.3,3.9,4.47c0.58,0.41,0.68,0.9,0.48,1.43
	c-1.14,2.95-2.33,5.87-3.5,8.8c-0.31,0.77-1,0.54-1.51,0.46c-3.99-0.59-7.02-3.24-7.91-6.86c-0.45-1.83-0.08-3.76,0.58-5.55
	c0.55-1.48,1.32-2.89,1.77-4.39C724.14-390.44,724.37-392.2,724.57-393.24z"/>
<path class="st0" d="M718.03-411.11c-2.33-0.05-4.55-0.5-6.65-1.57c-2.69-1.37-5.57-1.99-8.57-1.76c-2.17,0.16-4.27,0.7-6.24,1.7
	c-1.73,0.88-3.55,1.32-5.51,1.53c-2.03,0.22-3.63-0.42-5.15-1.55c-1.86-1.38-3.15-3.17-3.58-5.46c-0.44-2.36-0.62-2.11,1.58-3.05
	c2.38-1.01,4.83-1.87,7.25-2.8c0.59-0.23,1.02-0.11,1.41,0.43c2.35,3.19,5.49,4.97,9.45,5.4c3.97,0.43,7.57-0.37,10.69-2.92
	c0.87-0.71,1.66-1.55,2.34-2.44c0.44-0.58,0.9-0.69,1.48-0.52c3.02,0.9,5.94,2.05,8.75,3.49c0.7,0.36,0.51,0.95,0.45,1.44
	c-0.54,4.14-3.49,7.04-6.88,7.99C718.59-411.13,718.3-411.14,718.03-411.11z"/>
<g>
	<path class="st0" d="M789.17-306.38c-1.11-1.22-2.39-2.15-3.87-2.79c-1.47-0.64-3.06-0.96-4.76-0.96c-2.94,0-5.3,0.95-7.07,2.85
		c-1.77,1.9-2.65,4.42-2.65,7.56c0,3.27,0.89,5.84,2.67,7.71c1.78,1.87,4.24,2.8,7.38,2.8c1.75,0,3.31-0.33,4.68-0.98
		c1.37-0.65,2.58-1.64,3.62-2.97v8.29c-1.33,0.75-2.75,1.32-4.26,1.69c-1.51,0.38-3.12,0.56-4.83,0.56c-4.93,0-8.95-1.57-12.06-4.71
		s-4.66-7.21-4.66-12.21c0-5.06,1.61-9.15,4.83-12.26c3.22-3.11,7.43-4.66,12.62-4.66c1.64,0,3.14,0.16,4.51,0.48
		c1.37,0.32,2.65,0.81,3.85,1.48V-306.38z"/>
	<path class="st0" d="M792.92-289.59l5.97-3.25c0.44,1.57,1.26,2.77,2.46,3.58s2.73,1.23,4.61,1.23c1.61,0,2.88-0.37,3.8-1.11
		c0.92-0.74,1.38-1.75,1.38-3.04c0-1.7-1.64-3.16-4.91-4.38c-1.11-0.4-1.96-0.73-2.55-1c-3.36-1.39-5.71-2.81-7.05-4.25
		c-1.34-1.44-2.01-3.19-2.01-5.24c0-2.81,1.1-5.09,3.3-6.83c2.2-1.75,5.11-2.62,8.74-2.62c2.43,0,4.52,0.45,6.25,1.34
		c1.74,0.9,3,2.17,3.8,3.83l-5.11,3.52c-0.38-0.99-1.03-1.79-1.97-2.37s-2.03-0.88-3.27-0.88c-1.37,0-2.47,0.33-3.3,0.98
		c-0.83,0.65-1.24,1.52-1.24,2.6c0,1.64,1.86,3.13,5.57,4.48c1.17,0.42,2.08,0.76,2.72,1.03c2.9,1.15,4.97,2.45,6.22,3.9
		c1.25,1.45,1.87,3.26,1.87,5.42c0,3.14-1.14,5.6-3.42,7.38s-5.42,2.67-9.42,2.67c-3.08,0-5.63-0.58-7.66-1.72
		C795.66-285.47,794.07-287.23,792.92-289.59z"/>
	<path class="st0" d="M848.95-306.38c-1.11-1.22-2.39-2.15-3.87-2.79c-1.47-0.64-3.06-0.96-4.76-0.96c-2.94,0-5.3,0.95-7.07,2.85
		c-1.77,1.9-2.65,4.42-2.65,7.56c0,3.27,0.89,5.84,2.67,7.71c1.78,1.87,4.24,2.8,7.38,2.8c1.75,0,3.31-0.33,4.68-0.98
		c1.37-0.65,2.58-1.64,3.62-2.97v8.29c-1.33,0.75-2.75,1.32-4.26,1.69c-1.51,0.38-3.12,0.56-4.83,0.56c-4.93,0-8.95-1.57-12.06-4.71
		s-4.66-7.21-4.66-12.21c0-5.06,1.61-9.15,4.83-12.26c3.22-3.11,7.43-4.66,12.62-4.66c1.64,0,3.14,0.16,4.51,0.48
		c1.37,0.32,2.65,0.81,3.85,1.48V-306.38z"/>
	<path class="st0" d="M879.81-306.38c-1.11-1.22-2.39-2.15-3.87-2.79c-1.47-0.64-3.06-0.96-4.76-0.96c-2.94,0-5.3,0.95-7.07,2.85
		c-1.77,1.9-2.65,4.42-2.65,7.56c0,3.27,0.89,5.84,2.67,7.71c1.78,1.87,4.24,2.8,7.38,2.8c1.75,0,3.31-0.33,4.68-0.98
		c1.37-0.65,2.58-1.64,3.62-2.97v8.29c-1.33,0.75-2.75,1.32-4.26,1.69c-1.51,0.38-3.12,0.56-4.83,0.56c-4.93,0-8.95-1.57-12.06-4.71
		s-4.66-7.21-4.66-12.21c0-5.06,1.61-9.15,4.83-12.26c3.22-3.11,7.43-4.66,12.62-4.66c1.64,0,3.14,0.16,4.51,0.48
		c1.37,0.32,2.65,0.81,3.85,1.48V-306.38z"/>
</g>
<g>
	<path class="st0" d="M703.8-325.92c-6.69-0.01-12.18-5.49-12.09-12.28c0.08-6.43,5.35-11.98,12.22-11.93
		c6.57,0.05,12.09,5.47,11.98,12.32C715.81-331.36,710.52-325.94,703.8-325.92z"/>
	<path class="st0" d="M691.09-288.81c-0.1-6.47,5.33-12.16,12.08-12.16c6.69,0,12.1,5.47,12.17,12.01
		c0.07,6.72-5.52,12.2-12.06,12.26C696.67-276.64,690.98-282.27,691.09-288.81z"/>
	<path class="st0" d="M681.27-276.52c0.26-0.36,0.46-0.89,0.82-1.07c2.83-1.38,5.7-2.66,8.78-3.43c0.49-0.12,0.7,0.02,0.98,0.4
		c2.18,2.96,5.03,4.87,8.73,5.41c2.3,0.33,4.58,0.35,6.84-0.31c2.95-0.86,5.3-2.54,7.13-4.99c0.48-0.64,0.93-0.76,1.92-0.39
		c2.13,0.79,4.25,1.58,6.36,2.42c0.69,0.28,1.36,0.65,1.98,1.08c0.25,0.17,0.49,0.63,0.45,0.92c-0.37,2.66-1.33,5.01-3.56,6.73
		c-1.07,0.83-2.14,1.57-3.5,1.76c-0.54,0.07-1.09,0.06-1.63,0.06c-2.2,0-4.17-0.76-6.15-1.64c-2.09-0.93-4.27-1.58-6.64-1.59
		c-2.45,0-4.79,0.41-7.06,1.29c-1.17,0.45-2.29,1.04-3.48,1.44c-0.82,0.28-1.7,0.35-2.56,0.49c-1.74,0.29-3.32-0.1-4.78-1.09
		c-1.64-1.12-2.98-2.51-3.72-4.37C681.82-274.36,681.61-275.37,681.27-276.52z"/>
	<path class="st0" d="M676.87-299.87c0,6.62-5.48,12.26-12.45,12.08c-6.29-0.17-11.77-5.3-11.76-12.16
		c0.01-6.62,5.49-12.16,12.34-12.04C671.47-311.88,676.87-306.54,676.87-299.87z"/>
	<path class="st0" d="M742.23-312.21c6.61,0.04,12.16,5.43,12.12,12.26c-0.03,6.58-5.45,12.15-12.28,12.1
		c-6.56-0.05-12.15-5.43-12.08-12.3C730.06-306.84,735.53-312.21,742.23-312.21z"/>
	<path class="st0" d="M685.69-314.11c-0.06,2.36-0.52,4.61-1.6,6.73c-1.36,2.67-1.96,5.53-1.74,8.51c0.16,2.2,0.73,4.32,1.74,6.31
		c0.87,1.71,1.27,3.52,1.5,5.45c0.27,2.22-0.58,3.9-1.85,5.5c-1.34,1.68-3.06,2.82-5.19,3.21c-2.35,0.43-2.07,0.61-3.03-1.61
		c-1.03-2.38-1.87-4.83-2.79-7.25c-0.2-0.53-0.16-0.96,0.39-1.35c3-2.14,4.84-5.08,5.38-8.69c0.75-4.99-0.42-9.45-4.24-12.99
		c-0.35-0.32-0.69-0.68-1.1-0.91c-0.61-0.33-0.62-0.83-0.47-1.35c0.86-3.06,2.07-5.98,3.49-8.82c0.37-0.73,1.01-0.51,1.52-0.44
		c3.89,0.6,6.8,3.15,7.88,6.81C685.64-314.72,685.64-314.41,685.69-314.11z"/>
	<path class="st0" d="M724.57-299.24c-0.15-3.31-0.67-5.79-1.84-8.13c-0.86-1.72-1.28-3.54-1.51-5.48
		c-0.28-2.29,0.61-4.03,1.94-5.66c1.34-1.65,3.08-2.75,5.19-3.14c2.44-0.45,2.09-0.49,2.97,1.53c1.06,2.4,1.9,4.9,2.84,7.36
		c0.26,0.67,0.03,1.07-0.55,1.51c-3.1,2.35-4.88,5.46-5.32,9.36c-0.35,3.09,0.06,6.02,1.53,8.77c0.95,1.79,2.25,3.3,3.9,4.47
		c0.58,0.41,0.68,0.9,0.48,1.43c-1.14,2.95-2.33,5.87-3.5,8.8c-0.31,0.77-1,0.54-1.51,0.46c-3.99-0.59-7.02-3.24-7.91-6.86
		c-0.45-1.83-0.08-3.76,0.58-5.55c0.55-1.48,1.32-2.89,1.77-4.39C724.14-296.44,724.37-298.2,724.57-299.24z"/>
	<path class="st0" d="M718.03-317.11c-2.33-0.05-4.55-0.5-6.65-1.57c-2.69-1.37-5.57-1.99-8.57-1.76c-2.17,0.16-4.27,0.7-6.24,1.7
		c-1.73,0.88-3.55,1.32-5.51,1.53c-2.03,0.22-3.63-0.42-5.15-1.55c-1.86-1.38-3.15-3.17-3.58-5.46c-0.44-2.36-0.62-2.11,1.58-3.05
		c2.38-1.01,4.83-1.87,7.25-2.8c0.59-0.23,1.02-0.11,1.41,0.43c2.35,3.19,5.49,4.97,9.45,5.4c3.97,0.43,7.57-0.37,10.69-2.92
		c0.87-0.71,1.66-1.55,2.34-2.44c0.44-0.58,0.9-0.69,1.48-0.52c3.02,0.9,5.94,2.05,8.75,3.49c0.7,0.36,0.51,0.95,0.45,1.44
		c-0.54,4.14-3.49,7.04-6.88,7.99C718.59-317.13,718.3-317.14,718.03-317.11z"/>
</g>
<g>
	<g>
		<path class="st1" d="M196.81,67.71l3.96,3.56c-4.85,4.4-9.98,6.6-15.38,6.59c-5.78-0.01-10.7-2.06-14.76-6.14
			c-4.07-4.08-6.09-9.01-6.08-14.79c0.01-5.76,2.06-10.68,6.14-14.76c4.08-4.08,9.01-6.12,14.79-6.1c5.4,0.01,10.52,2.23,15.35,6.65
			l-3.97,3.6c-3.64-3.25-7.44-4.87-11.39-4.88c-4.28-0.01-7.94,1.5-10.99,4.53c-3.05,3.03-4.58,6.69-4.59,10.98
			c-0.01,4.31,1.5,7.99,4.54,11.03c3.04,3.04,6.69,4.56,10.97,4.57C189.35,72.55,193.15,70.94,196.81,67.71z"/>
		<path class="st1" d="M242.29,42.24c4.08,4.1,6.12,9.04,6.1,14.81c-0.01,5.78-2.07,10.71-6.17,14.79
			c-4.1,4.08-9.04,6.12-14.81,6.11c-5.78-0.01-10.71-2.07-14.79-6.17c-4.08-4.1-6.12-9.04-6.11-14.81
			c0.01-5.78,2.07-10.71,6.17-14.79c4.1-4.08,9.04-6.12,14.81-6.1C233.27,36.09,238.2,38.14,242.29,42.24z M227.49,41.42
			c-4.31-0.01-7.99,1.5-11.04,4.54c-3.05,3.04-4.58,6.71-4.59,11.02c-0.01,4.31,1.51,8,4.55,11.05c3.04,3.06,6.71,4.59,11.01,4.6
			c4.31,0.01,7.99-1.51,11.04-4.55c3.05-3.04,4.58-6.72,4.59-11.03c0.01-4.31-1.5-7.99-4.54-11.04
			C235.47,42.95,231.8,41.43,227.49,41.42z"/>
		<path class="st1" d="M261.57,36.68l13.22,22.96l13.26-22.9l4.83,0.01l-0.08,40.9l-5.29-0.01l0.06-29.55l-12.8,22.06l-12.76-22.11
			l-0.06,29.55l-5.29-0.01l0.08-40.9L261.57,36.68z"/>
		<path class="st1" d="M307.04,64.59l-0.03,13.09l-5.29-0.01l0.08-40.9l11.61,0.02c3.29,0.45,6.06,1.81,8.33,4.08
			c2.7,2.73,4.05,6.01,4.04,9.82c-0.01,3.85-1.37,7.13-4.08,9.85c-2.72,2.71-5.99,4.07-9.82,4.06L307.04,64.59z M307.09,42.09
			l-0.04,17.18l4.83,0.01c2.35,0,4.37-0.83,6.05-2.51c1.68-1.67,2.53-3.71,2.53-6.09c0-2.37-0.83-4.39-2.51-6.06
			c-1.68-1.67-3.69-2.51-6.04-2.52L307.09,42.09z"/>
		<path class="st1" d="M353.58,36.87l5.32,0.01l-0.06,28.81c-0.47,3.29-1.83,6.06-4.08,8.33c-2.73,2.72-6.02,4.08-9.85,4.07
			c-3.83-0.01-7.11-1.37-9.82-4.1c-2.71-2.72-4.07-6-4.06-9.84l0.06-27.33l5.32,0.01l-0.06,27.33c0,2.35,0.83,4.37,2.51,6.05
			c1.67,1.68,3.7,2.53,6.07,2.53c2.39,0,4.42-0.83,6.09-2.49c1.67-1.67,2.51-3.68,2.52-6.05L353.58,36.87z"/>
		<path class="st1" d="M378.85,42.21l-0.07,35.61l-5.32-0.01l0.07-35.61L364,42.18l0.01-5.29l24.39,0.05l-0.01,5.29L378.85,42.21z"
			/>
		<path class="st1" d="M415.54,37l-0.01,5.29l-16.74-0.03l-0.03,12.5l16.74,0.03l-0.01,5.29l-16.74-0.03l-0.03,12.5l16.74,0.03
			l-0.01,5.32l-22.04-0.05l0.08-40.9L415.54,37z"/>
		<path class="st1" d="M432.64,64.85l-4.83-0.01l-0.03,13.09l-5.29-0.01l0.08-40.9l11.61,0.02c3.29,0.45,6.06,1.81,8.33,4.08
			c2.7,2.73,4.05,6.01,4.04,9.82c-0.01,3.85-1.37,7.14-4.08,9.86c-1.88,1.87-3.31,2.92-4.3,3.16l9.05,14l-6.42-0.01L432.64,64.85z
			 M427.85,42.34l-0.04,17.18l4.83,0.01c2.35,0,4.37-0.83,6.05-2.51c1.68-1.67,2.53-3.71,2.53-6.09c0-2.37-0.83-4.39-2.51-6.06
			c-1.68-1.67-3.69-2.51-6.04-2.52L427.85,42.34z"/>
	</g>
	<g>
		<path class="st0" d="M79.77,37.88c-9.95-0.03-18.08-8.2-17.93-18.29c0.14-9.55,7.98-17.78,18.2-17.69
			c9.76,0.09,17.95,8.17,17.77,18.34C97.64,29.84,89.77,37.88,79.77,37.88z"/>
		<path class="st2" d="M60.78,92.98c-0.13-9.61,7.95-18.05,17.98-18.03c9.94,0.02,17.96,8.17,18.04,17.88
			c0.08,9.99-8.23,18.12-17.95,18.18C69.03,111.08,60.61,102.69,60.78,92.98z"/>
		<path class="st2" d="M46.16,111.21c0.39-0.53,0.68-1.33,1.22-1.59c4.21-2.04,8.48-3.93,13.05-5.07c0.73-0.18,1.04,0.04,1.45,0.6
			c3.23,4.41,7.46,7.26,12.95,8.06c3.41,0.5,6.8,0.53,10.16-0.44c4.38-1.27,7.88-3.76,10.6-7.4c0.72-0.96,1.38-1.13,2.86-0.58
			c3.16,1.18,6.31,2.36,9.44,3.61c1.03,0.41,2.02,0.97,2.93,1.61c0.37,0.26,0.72,0.94,0.66,1.37c-0.56,3.96-1.99,7.45-5.31,9.99
			c-1.59,1.22-3.18,2.33-5.2,2.6c-0.8,0.11-1.61,0.08-2.42,0.08c-3.26-0.01-6.19-1.14-9.14-2.46c-3.1-1.39-6.34-2.37-9.86-2.38
			c-3.64-0.01-7.12,0.59-10.49,1.89c-1.74,0.67-3.41,1.54-5.17,2.13c-1.21,0.41-2.53,0.51-3.8,0.72c-2.59,0.43-4.94-0.16-7.09-1.63
			c-2.44-1.67-4.42-3.74-5.51-6.51C46.96,114.42,46.65,112.93,46.16,111.21z"/>
		<path class="st0" d="M39.68,76.51c-0.02,9.84-8.18,18.2-18.54,17.91c-9.34-0.27-17.47-7.91-17.44-18.1
			c0.03-9.83,8.2-18.05,18.37-17.86C31.7,58.64,39.71,66.59,39.68,76.51z"/>
		<path class="st0" d="M136.85,58.37c9.83,0.09,18.04,8.11,17.97,18.26c-0.07,9.78-8.14,18.03-18.28,17.94
			c-9.74-0.09-18.03-8.11-17.91-18.31C118.73,66.32,126.89,58.35,136.85,58.37z"/>
		<path class="st0" d="M52.83,55.37c-0.09,3.51-0.79,6.85-2.4,9.99c-2.03,3.96-2.93,8.21-2.61,12.63c0.23,3.26,1.07,6.42,2.57,9.38
			c1.28,2.54,1.87,5.24,2.21,8.1c0.39,3.31-0.88,5.8-2.77,8.17c-1.99,2.49-4.56,4.19-7.72,4.76c-3.49,0.63-3.08,0.9-4.5-2.4
			c-1.52-3.53-2.77-7.18-4.13-10.78c-0.3-0.79-0.23-1.43,0.58-2c4.46-3.18,7.21-7.54,8.02-12.9c1.13-7.41-0.6-14.04-6.26-19.31
			c-0.52-0.48-1.03-1.02-1.64-1.35c-0.9-0.49-0.92-1.24-0.7-2c1.29-4.54,3.09-8.88,5.22-13.09c0.55-1.09,1.51-0.76,2.26-0.64
			c5.78,0.9,10.09,4.7,11.69,10.14C52.76,54.47,52.77,54.93,52.83,55.37z"/>
		<path class="st0" d="M110.57,77.59c-0.22-4.92-0.98-8.61-2.71-12.09c-1.28-2.56-1.89-5.27-2.23-8.14c-0.4-3.41,0.92-5.99,2.9-8.41
			c2-2.45,4.58-4.08,7.72-4.65c3.63-0.66,3.1-0.72,4.41,2.28c1.56,3.58,2.81,7.29,4.2,10.94c0.38,0.99,0.04,1.59-0.82,2.23
			c-4.61,3.49-7.27,8.09-7.93,13.89c-0.53,4.59,0.07,8.94,2.25,13.03c1.41,2.66,3.34,4.91,5.78,6.66c0.86,0.61,1.01,1.35,0.71,2.12
			c-1.7,4.37-3.47,8.72-5.23,13.07c-0.46,1.14-1.49,0.79-2.24,0.68c-5.92-0.89-10.42-4.84-11.72-10.21
			c-0.66-2.73-0.11-5.59,0.87-8.25c0.82-2.2,1.97-4.29,2.64-6.52C109.91,81.74,110.25,79.13,110.57,77.59z"/>
		<path class="st0" d="M100.9,51.01c-3.46-0.09-6.76-0.76-9.88-2.35c-3.99-2.04-8.27-2.98-12.73-2.65
			c-3.22,0.24-6.35,1.03-9.28,2.51c-2.57,1.3-5.28,1.95-8.19,2.26c-3.01,0.32-5.39-0.64-7.65-2.33c-2.75-2.05-4.67-4.72-5.3-8.12
			c-0.64-3.5-0.92-3.13,2.36-4.52c3.54-1.5,7.18-2.76,10.78-4.14c0.88-0.34,1.52-0.16,2.1,0.64c3.48,4.75,8.15,7.4,14.03,8.06
			c5.89,0.65,11.25-0.52,15.89-4.3c1.29-1.05,2.47-2.3,3.49-3.62c0.66-0.85,1.33-1.03,2.2-0.77c4.49,1.34,8.82,3.07,12.99,5.21
			c1.04,0.53,0.75,1.41,0.66,2.14c-0.82,6.15-5.21,10.45-10.25,11.85C101.72,50.98,101.3,50.97,100.9,51.01z"/>
	</g>
	<g>
		<path class="st0" d="M193.21,95.54c-1.66-0.56-3-1.35-4.03-2.39c-1.03-1.03-1.54-2.31-1.54-3.83c0-1.49,0.54-2.77,1.61-3.84
			c1.07-1.07,2.37-1.6,3.89-1.6c1.5,0,2.79,0.54,3.86,1.6c0.6,0.59,1.11,1.52,1.52,2.8l-2.75,1.08c-0.33-0.9-0.63-1.48-0.9-1.76
			c-0.48-0.47-1.05-0.7-1.73-0.71c-0.68,0-1.26,0.23-1.74,0.71c-0.48,0.47-0.72,1.05-0.72,1.73c0,0.68,0.24,1.26,0.71,1.74
			c0.54,0.53,1.28,1.01,2.22,1.45c1.83,0.6,3.39,1.54,4.66,2.82c1.43,1.42,2.14,3.14,2.14,5.15c0,2.02-0.72,3.74-2.15,5.17
			c-1.43,1.43-3.15,2.14-5.16,2.13c-2.02,0-3.74-0.72-5.16-2.16c-1.14-1.14-1.86-2.72-2.16-4.73l2.94-1.06
			c0.18,1.73,0.63,2.95,1.35,3.68c0.84,0.84,1.85,1.26,3.03,1.26c1.18,0,2.19-0.41,3.03-1.25c0.84-0.84,1.26-1.85,1.26-3.04
			c0-1.18-0.41-2.19-1.25-3.03C195.35,96.66,194.37,96.02,193.21,95.54z"/>
		<path class="st0" d="M215.27,102.43l3.03,1.09c-0.74,1.02-1.28,1.7-1.61,2.03c-1.63,1.63-3.6,2.44-5.9,2.43
			c-2.29,0-4.25-0.82-5.88-2.46c-1.63-1.63-2.44-3.6-2.43-5.9c0-2.3,0.82-4.27,2.46-5.89c1.63-1.63,3.6-2.44,5.89-2.43
			c2.3,0,4.27,0.82,5.89,2.46c0.33,0.33,0.87,1,1.61,2.01l-3.03,1.11c-0.39-0.48-0.65-0.79-0.79-0.92
			c-1.01-1.02-2.24-1.53-3.68-1.53c-1.43,0-2.66,0.5-3.68,1.52c-1.02,1.02-1.53,2.25-1.54,3.69c0,1.43,0.5,2.66,1.52,3.68
			c1.02,1.02,2.24,1.53,3.68,1.54c1.44,0,2.68-0.5,3.7-1.51C214.62,103.2,214.88,102.9,215.27,102.43z"/>
		<path class="st0" d="M225.11,86.98c0.42,0.41,0.63,0.91,0.63,1.51c0,0.59-0.21,1.1-0.63,1.51c-0.42,0.41-0.92,0.61-1.51,0.61
			c-0.58,0-1.07-0.21-1.49-0.62c-0.42-0.41-0.63-0.91-0.63-1.51s0.21-1.1,0.63-1.51c0.42-0.41,0.92-0.61,1.49-0.61
			C224.19,86.37,224.69,86.57,225.11,86.98z M225.11,92.56l-0.03,15.06l-3.03-0.01l0.03-15.06L225.11,92.56z"/>
		<path class="st0" d="M234.41,104.23c0.51,0.45,1.43,0.68,2.76,0.68c1.44,0,2.68-0.5,3.7-1.51c0.13-0.14,0.39-0.44,0.78-0.91
			l3.03,1.09c-0.74,1.02-1.28,1.7-1.61,2.03c-1.63,1.63-3.6,2.44-5.9,2.43c-2.29,0-4.25-0.82-5.88-2.46
			c-1.63-1.63-2.44-3.6-2.43-5.9s0.82-4.27,2.46-5.89s3.6-2.44,5.89-2.43c1.97,0,3.7,0.6,5.18,1.8c0.24,0.21,0.48,0.43,0.72,0.66
			c0.1,0.1,0.37,0.41,0.83,0.92l-1.53,1.53L234.41,104.23z M239.49,94.87c-0.34-0.26-1.11-0.4-2.3-0.4c-1.43,0-2.66,0.5-3.68,1.52
			c-1.02,1.02-1.53,2.25-1.54,3.69c0,1.18,0.13,1.95,0.39,2.3L239.49,94.87z"/>
		<path class="st0" d="M251.25,96.65l-0.02,11.02l-3.04-0.01l0.03-15.06l3.04,0.01l0,1.76c0.64-1.72,1.91-2.57,3.82-2.57
			c1.63,0,2.92,0.58,3.88,1.74c0.96,1.16,1.45,2.61,1.48,4.36l-0.02,9.79l-3.03-0.01l0.02-9.67c0-0.87-0.31-1.61-0.95-2.23
			c-0.63-0.62-1.39-0.93-2.27-0.93c-0.87,0-1.62,0.3-2.26,0.9C251.59,96.11,251.36,96.41,251.25,96.65z"/>
		<path class="st0" d="M276.79,102.56l3.03,1.09c-0.74,1.02-1.28,1.7-1.61,2.03c-1.63,1.63-3.6,2.44-5.9,2.43
			c-2.29,0-4.25-0.82-5.88-2.46c-1.63-1.63-2.44-3.6-2.43-5.9c0-2.3,0.82-4.27,2.46-5.89c1.63-1.63,3.6-2.44,5.89-2.43
			c2.3,0,4.27,0.82,5.89,2.46c0.33,0.33,0.87,1,1.61,2.01L276.8,97c-0.39-0.48-0.65-0.79-0.79-0.92c-1.01-1.02-2.24-1.53-3.68-1.53
			c-1.43,0-2.66,0.5-3.68,1.52c-1.02,1.02-1.53,2.25-1.54,3.69c0,1.43,0.5,2.66,1.52,3.68c1.02,1.02,2.24,1.53,3.68,1.54
			c1.44,0,2.68-0.5,3.7-1.51C276.14,103.33,276.39,103.02,276.79,102.56z"/>
		<path class="st0" d="M288.01,104.34c0.51,0.45,1.43,0.68,2.76,0.68c1.44,0,2.68-0.5,3.7-1.51c0.13-0.14,0.39-0.44,0.78-0.91
			l3.03,1.09c-0.74,1.02-1.28,1.7-1.61,2.03c-1.63,1.63-3.6,2.44-5.9,2.43c-2.29,0-4.25-0.82-5.88-2.46
			c-1.63-1.63-2.44-3.6-2.43-5.9s0.82-4.27,2.46-5.89s3.6-2.44,5.89-2.43c1.97,0,3.7,0.6,5.18,1.8c0.24,0.21,0.48,0.43,0.72,0.66
			c0.1,0.1,0.37,0.41,0.83,0.92L296,96.38L288.01,104.34z M293.09,94.98c-0.34-0.26-1.11-0.4-2.3-0.4c-1.43,0-2.66,0.5-3.68,1.52
			c-1.02,1.02-1.53,2.25-1.54,3.69c0,1.18,0.13,1.95,0.39,2.3L293.09,94.98z"/>
		<path class="st1" d="M330.27,102.26l2.26,2.04c-2.78,2.52-5.71,3.78-8.8,3.77c-3.31-0.01-6.12-1.18-8.45-3.51
			c-2.33-2.34-3.49-5.16-3.48-8.46c0.01-3.3,1.18-6.11,3.51-8.45c2.34-2.34,5.16-3.5,8.46-3.49c3.09,0.01,6.02,1.28,8.79,3.81
			l-2.27,2.06c-2.08-1.86-4.26-2.79-6.52-2.79c-2.45-0.01-4.54,0.86-6.29,2.59c-1.74,1.73-2.62,3.83-2.62,6.29
			c-0.01,2.47,0.86,4.57,2.6,6.31c1.74,1.74,3.83,2.61,6.28,2.62C326,105.03,328.18,104.11,330.27,102.26z"/>
		<path class="st1" d="M343.65,91.57c2.3,0,4.26,0.82,5.89,2.46s2.43,3.6,2.42,5.9c0,2.3-0.82,4.27-2.45,5.89
			c-1.63,1.63-3.59,2.44-5.9,2.43c-2.29,0-4.25-0.82-5.88-2.46c-1.63-1.63-2.44-3.6-2.43-5.9c0-2.3,0.82-4.27,2.46-5.89
			S341.36,91.57,343.65,91.57z M339.94,96.22c-1.02,1.02-1.53,2.25-1.54,3.68c0,1.44,0.5,2.67,1.52,3.69
			c1.02,1.02,2.25,1.53,3.69,1.53c1.44,0,2.68-0.5,3.7-1.51c1.02-1.01,1.53-2.24,1.54-3.68c0-1.43-0.5-2.66-1.52-3.69
			c-1.02-1.03-2.25-1.54-3.69-1.54C342.2,94.69,340.97,95.2,339.94,96.22z"/>
		<path class="st1" d="M355.48,92.83l3.03,0.01l0,1.4c0.59-1.47,1.72-2.21,3.38-2.2c1.66,0,2.59,0.84,2.79,2.52
			c0.48-1.68,1.8-2.51,3.96-2.51c2.13,0,3.19,1.3,3.18,3.88l-0.02,11.98l-3.04-0.01l0.02-10.59c0-1.48-0.6-2.23-1.79-2.23
			c-0.5,0-0.93,0.17-1.29,0.52c-0.36,0.35-0.54,1.53-0.55,3.54l-0.02,8.75l-3.03-0.01l0.04-10.59c0-1.48-0.6-2.23-1.81-2.23
			c-0.5,0-0.93,0.17-1.29,0.52c-0.31,0.3-0.49,1.1-0.53,2.4l-0.02,9.89l-3.03-0.01L355.48,92.83z"/>
		<path class="st1" d="M376.23,92.87l3.03,0.01l0,1.4c0.59-1.47,1.72-2.21,3.38-2.2c1.66,0,2.59,0.84,2.79,2.52
			c0.48-1.68,1.8-2.51,3.96-2.51c2.13,0,3.19,1.3,3.18,3.88l-0.02,11.98l-3.04-0.01l0.02-10.59c0-1.48-0.6-2.23-1.79-2.23
			c-0.5,0-0.93,0.17-1.29,0.52c-0.36,0.35-0.54,1.53-0.55,3.54l-0.02,8.75l-3.03-0.01l0.04-10.59c0-1.48-0.6-2.23-1.81-2.23
			c-0.5,0-0.93,0.17-1.29,0.52c-0.31,0.3-0.49,1.1-0.53,2.4l-0.02,9.89l-3.03-0.01L376.23,92.87z"/>
		<path class="st1" d="M403.04,108.18c-1.9,0-3.43-0.59-4.59-1.75c-1.16-1.16-1.75-2.62-1.78-4.36l0.02-9.16l3.04,0.01l-0.02,9.04
			c0,0.87,0.31,1.62,0.95,2.24c0.63,0.63,1.42,0.94,2.37,0.94c0.87,0,1.62-0.31,2.26-0.92c0.64-0.62,0.96-1.37,0.96-2.24l0.02-9.04
			l3.03,0.01l-0.02,9.16c-0.03,1.75-0.63,3.2-1.78,4.36C406.34,107.61,404.85,108.19,403.04,108.18z"/>
		<path class="st1" d="M416.72,96.99l-0.02,11.02l-3.04-0.01l0.03-15.06l3.04,0.01l0,1.76c0.64-1.72,1.91-2.57,3.82-2.57
			c1.63,0,2.92,0.58,3.88,1.74c0.96,1.16,1.45,2.61,1.48,4.36l-0.02,9.79l-3.03-0.01l0.02-9.67c0-0.87-0.31-1.61-0.95-2.23
			c-0.63-0.62-1.39-0.93-2.27-0.93c-0.87,0-1.62,0.3-2.26,0.9C417.06,96.44,416.83,96.75,416.72,96.99z"/>
		<path class="st1" d="M433.63,87.41c0.42,0.41,0.63,0.91,0.63,1.51c0,0.59-0.21,1.1-0.63,1.51c-0.42,0.41-0.92,0.61-1.51,0.61
			c-0.58,0-1.07-0.21-1.49-0.62c-0.42-0.41-0.63-0.91-0.63-1.51s0.21-1.1,0.63-1.51c0.42-0.41,0.92-0.61,1.49-0.61
			C432.71,86.8,433.21,87,433.63,87.41z M433.63,92.99l-0.03,15.06l-3.03-0.01l0.03-15.06L433.63,92.99z"/>
		<path class="st1" d="M440.1,93l0.01-5.65l3.03,0.01l-0.01,5.65l2.71,0.01l-0.01,3.03l-2.71-0.01l-0.02,12.03l-3.03-0.01
			l0.02-12.03l-2.71-0.01l0.01-3.03L440.1,93z"/>
		<path class="st1" d="M453.02,113.15l-3.2-0.01l4.03-8.41l-5.58-11.72l3.41,0.01l3.8,8.25l3.84-8.23l3.39,0.01L453.02,113.15z"/>
		<path class="st0" d="M494.48,102.59l2.26,2.04c-2.78,2.52-5.71,3.78-8.8,3.77c-3.31-0.01-6.12-1.18-8.45-3.51
			c-2.33-2.34-3.49-5.16-3.48-8.46c0.01-3.3,1.18-6.11,3.51-8.45c2.34-2.34,5.16-3.5,8.46-3.49c3.09,0.01,6.02,1.28,8.79,3.81
			l-2.27,2.06c-2.08-1.86-4.26-2.79-6.52-2.79c-2.45-0.01-4.54,0.86-6.29,2.59c-1.74,1.73-2.62,3.83-2.62,6.29
			c-0.01,2.47,0.86,4.57,2.6,6.31c1.74,1.74,3.83,2.61,6.28,2.62C490.21,105.36,492.39,104.44,494.48,102.59z"/>
		<path class="st0" d="M503.47,84.76l-0.05,23.43l-3.04-0.01l0.05-23.43L503.47,84.76z"/>
		<path class="st0" d="M514.19,108.41c-1.9,0-3.43-0.59-4.59-1.75c-1.16-1.16-1.75-2.62-1.78-4.36l0.02-9.16l3.04,0.01l-0.02,9.04
			c0,0.87,0.31,1.62,0.95,2.24c0.63,0.63,1.42,0.94,2.37,0.94c0.87,0,1.62-0.31,2.26-0.92c0.64-0.62,0.96-1.37,0.96-2.24l0.02-9.04
			l3.03,0.01l-0.02,9.16c-0.03,1.75-0.63,3.2-1.78,4.36C517.5,107.84,516.01,108.42,514.19,108.41z"/>
		<path class="st0" d="M527.85,106.36l0,1.87l-3.03-0.01l0.05-23.41l3.03,0.01l-0.02,9.39c1.47-1.51,3.17-2.26,5.11-2.26
			c2.3,0,4.26,0.82,5.89,2.46c1.62,1.63,2.43,3.6,2.42,5.9c0,2.3-0.82,4.27-2.45,5.89c-1.63,1.63-3.59,2.44-5.9,2.43
			C531.01,108.64,529.31,107.88,527.85,106.36z M527.87,99.12l0,2.36c0.18,0.92,0.65,1.75,1.4,2.5c1.02,1.02,2.26,1.53,3.7,1.53
			c1.44,0,2.68-0.5,3.7-1.51c1.02-1.01,1.53-2.24,1.54-3.68c0-1.43-0.5-2.66-1.52-3.69c-1.02-1.03-2.25-1.54-3.69-1.54
			c-1.44,0-2.68,0.51-3.71,1.53C528.52,97.36,528.05,98.19,527.87,99.12z"/>
	</g>
</g>
<g>
</g>
<g>
</g>
<g>
</g>
<g>
</g>
<g>
</g>
<g>
</g>
<g>
</g>
<g>
</g>
<g>
</g>
<g>
</g>
<g>
</g>
<g>
</g>
<g>
</g>
<g>
</g>
<g>
</g>
</svg>
